<?xml version="1.0" encoding="UTF-8"?>
<svg version="1.1" xmlns="http://www.w3.org/2000/svg" width="1024" height="256">
<path d="M0 0 C1.18819336 0.00563965 2.37638672 0.0112793 3.60058594 0.01708984 C30.60650846 0.38879851 55.42652572 11.32752692 75 30 C96.72513882 52.9360482 105.43133827 79.34952958 105.09375 110.62109375 C104.72684623 123.59297646 101.52886831 135.66247452 95.8125 147.3125 C95.37164062 148.22128906 94.93078125 149.13007813 94.4765625 150.06640625 C90.69776523 157.40478879 85.91078796 163.8423091 80.8125 170.3125 C80.10351562 171.25351563 79.39453125 172.19453125 78.6640625 173.1640625 C78.05304688 173.87304688 77.44203125 174.58203125 76.8125 175.3125 C76.1525 175.3125 75.4925 175.3125 74.8125 175.3125 C74.59207031 175.87453125 74.37164062 176.4365625 74.14453125 177.015625 C67.80623561 187.94500282 50.23855721 197.33821923 38.8125 201.3125 C38.1525 201.3125 37.4925 201.3125 36.8125 201.3125 C36.4825 201.9725 36.1525 202.6325 35.8125 203.3125 C34.09765625 203.89086914 34.09765625 203.89086914 31.875 204.34765625 C31.06160156 204.51716797 30.24820313 204.68667969 29.41015625 204.86132812 C28.55292969 205.03083984 27.69570312 205.20035156 26.8125 205.375 C25.98621094 205.54837891 25.15992188 205.72175781 24.30859375 205.90039062 C-3.05380494 211.48848613 -31.08422364 207.96211391 -54.7578125 192.66015625 C-74.02325311 179.70064415 -88.06116471 162.54925842 -97.1875 141.3125 C-97.1875 140.3225 -97.1875 139.3325 -97.1875 138.3125 C-98.1775 137.9825 -99.1675 137.6525 -100.1875 137.3125 C-99.5275 137.3125 -98.8675 137.3125 -98.1875 137.3125 C-98.45304687 136.54808594 -98.71859375 135.78367188 -98.9921875 134.99609375 C-102.41396081 124.61837979 -104.38890537 114.30587639 -104.1875 103.3125 C-104.8475 102.9825 -105.5075 102.6525 -106.1875 102.3125 C-105.5275 102.3125 -104.8675 102.3125 -104.1875 102.3125 C-104.10113281 101.13816406 -104.01476562 99.96382813 -103.92578125 98.75390625 C-101.35554247 67.82363988 -88.26641739 42.96773691 -64.7734375 22.40234375 C-46.13720267 7.34133826 -23.76784094 -0.11833207 0 0 Z " fill="#BFE1FC" transform="translate(126.1875,39.6875)"/>
<path d="M0 0 C12.67726227 12.34048491 18.20553061 27.56122785 19.05859375 45.03125 C19.05859375 63.1703687 13.94313004 79.44540624 1.37109375 92.8984375 C-8.42669457 101.81905896 -21.26520605 105.80456931 -34.4453125 105.28515625 C-42.6626433 104.35925982 -49.3359988 102.36929475 -56.00390625 97.40625 C-58.18865992 95.74515596 -58.18865992 95.74515596 -61.94140625 94.00390625 C-61.94140625 110.50390625 -61.94140625 127.00390625 -61.94140625 144.00390625 C-71.75265916 145.96615683 -81.93585224 145.00390625 -91.94140625 145.00390625 C-92.27140625 94.84390625 -92.60140625 44.68390625 -92.94140625 -6.99609375 C-87.96152386 -8.65605455 -85.97666239 -9.23454838 -81.10546875 -8.97265625 C-80.04199219 -8.92109375 -78.97851562 -8.86953125 -77.8828125 -8.81640625 C-76.24119141 -8.71972656 -76.24119141 -8.71972656 -74.56640625 -8.62109375 C-72.88998047 -8.53601563 -72.88998047 -8.53601563 -71.1796875 -8.44921875 C-68.43305231 -8.30836566 -65.68713676 -8.15360077 -62.94140625 -7.99609375 C-62.61140625 -4.03609375 -62.28140625 -0.07609375 -61.94140625 4.00390625 C-61.28140625 3.30265625 -60.62140625 2.60140625 -59.94140625 1.87890625 C-43.36871122 -14.55373784 -18.12910596 -15.40142396 0 0 Z M-55.75390625 20.25390625 C-62.82173024 29.13917069 -63.14234708 37.74012301 -63.19140625 48.75390625 C-63.21203125 49.89601562 -63.23265625 51.038125 -63.25390625 52.21484375 C-63.2893592 59.92585992 -63.04692058 67.112268 -58.07421875 73.34375 C-50.59400704 79.2959029 -43.97362532 81.65446396 -34.28125 80.7578125 C-26.42605428 79.41899332 -21.28390396 76.06937466 -16.26171875 69.9296875 C-9.78900835 60.48872234 -9.79357791 47.63702804 -11.69140625 36.75390625 C-13.28724633 29.75243885 -16.53130732 22.06102401 -22.609375 17.84765625 C-33.45113955 11.37496099 -45.96985981 12.4266691 -55.75390625 20.25390625 Z " fill="#000000" transform="translate(379.94140625,102.99609375)"/>
<path d="M0 0 C9.96965991 7.83218979 17.32978167 19.74237781 19.2265625 32.39453125 C19.31550781 33.24144531 19.40445313 34.08835938 19.49609375 34.9609375 C19.61597656 36.02441406 19.73585938 37.08789062 19.859375 38.18359375 C20.46371473 44.52552035 20.30512251 49.48870745 19.49609375 55.9609375 C-5.58390625 55.9609375 -30.66390625 55.9609375 -56.50390625 55.9609375 C-57.5969178 60.3329837 -57.28265507 61.45231292 -55.75390625 65.5234375 C-55.4084375 66.47347656 -55.06296875 67.42351562 -54.70703125 68.40234375 C-53.54908226 70.86486515 -52.446429 72.12447203 -50.50390625 73.9609375 C-50.50390625 74.6209375 -50.50390625 75.2809375 -50.50390625 75.9609375 C-48.84851667 76.65513313 -47.17754602 77.31197514 -45.50390625 77.9609375 C-44.83746094 78.22519531 -44.17101562 78.48945313 -43.484375 78.76171875 C-34.37268053 82.1287372 -27.45279398 81.45361019 -18.50390625 77.9609375 C-17.53453125 77.6515625 -16.56515625 77.3421875 -15.56640625 77.0234375 C-12.98619033 75.69423536 -12.5264384 74.63525236 -11.50390625 71.9609375 C-10.84508834 70.62370858 -10.17945418 69.2897931 -9.50390625 67.9609375 C-3.17641254 68.56265112 2.87205027 69.58245659 9.05859375 71.0234375 C9.87650391 71.20970703 10.69441406 71.39597656 11.53710938 71.58789062 C13.52445271 72.04114437 15.51042576 72.50039962 17.49609375 72.9609375 C16.1975674 81.96946402 9.84889275 89.53075859 2.99609375 95.1796875 C-10.33515279 104.67820066 -25.92378317 107.64389711 -42.0078125 105.4921875 C-57.20927754 102.68884378 -68.9907716 95.59152144 -78.31640625 83.2109375 C-88.6561976 67.35984227 -90.18127012 49.1140084 -86.50390625 30.9609375 C-83.26365369 18.09101872 -76.58186825 6.60091129 -65.50390625 -1.0390625 C-45.54767114 -12.68918894 -19.37127216 -13.32653556 0 0 Z M-53.25 22.09765625 C-56.35323814 26.70901012 -57.50390625 30.27010241 -57.50390625 35.9609375 C-41.66390625 35.9609375 -25.82390625 35.9609375 -9.50390625 35.9609375 C-11.39643784 27.44454535 -12.72562879 21.66777481 -19.6640625 16.28515625 C-31.43233621 9.49208769 -44.89073052 11.46065666 -53.25 22.09765625 Z " fill="#000000" transform="translate(787.50390625,102.0390625)"/>
<path d="M0 0 C6.18747362 0.59791107 12.45805515 0.32563923 18.66796875 0.2578125 C21.48457296 6.29626381 23.82090855 12.35255404 25.83984375 18.69921875 C26.26561203 20.0162529 26.26561203 20.0162529 26.69998169 21.3598938 C27.6103508 24.17864489 28.51413285 26.99946061 29.41796875 29.8203125 C30.35419237 32.72354677 31.29218918 35.62620414 32.23031616 38.52882385 C32.84774613 40.43948478 33.46463289 42.35032133 34.08096313 44.26133728 C36.52556365 51.83720766 39.01511105 59.3968155 41.54296875 66.9453125 C41.87006836 67.92250244 42.19716797 68.89969238 42.53417969 69.90649414 C43.24405939 72.0240645 43.95573934 74.14103129 44.66796875 76.2578125 C47.92810795 68.51135748 50.57222663 60.62964449 53.109375 52.62109375 C53.52204064 51.32922826 53.93512984 50.03749799 54.34861755 48.74589539 C55.64659937 44.68864843 56.9389078 40.62960722 58.23046875 36.5703125 C59.73270299 31.84952325 61.2373454 27.12952593 62.74763298 22.41130638 C63.34586294 20.53839668 63.93989488 18.66414772 64.53382874 16.78987122 C64.90108566 15.64145248 65.26834259 14.49303375 65.64672852 13.30981445 C65.96553482 12.30739212 66.28434113 11.30496979 66.61280823 10.27217102 C67.80267283 6.87299296 69.24930192 3.5680351 70.66796875 0.2578125 C79.90796875 0.2578125 89.14796875 0.2578125 98.66796875 0.2578125 C97.96059075 5.2094585 97.36425701 8.61134708 95.69921875 13.1171875 C95.29791748 14.21804687 94.89661621 15.31890625 94.4831543 16.453125 C94.04914307 17.62617187 93.61513184 18.79921875 93.16796875 20.0078125 C92.24495474 22.54342407 91.32373201 25.07957952 90.40625 27.6171875 C90.17339798 28.26014771 89.94054596 28.90310791 89.70063782 29.56555176 C87.46769646 35.7584663 85.40257565 42.00160316 83.35546875 48.2578125 C78.54028204 62.89711206 73.27342607 77.36574995 67.99234009 91.84191895 C66.33327685 96.3989321 64.71091102 100.96659396 63.1171875 105.546875 C49.79845286 143.73455789 49.79845286 143.73455789 34.54296875 151.7578125 C22.0767159 157.70986956 9.5857222 154.95034672 -3.33203125 152.2578125 C-4.26583603 149.25908004 -4.34422319 147.26721389 -3.625 144.21875 C-3.45033203 143.47367188 -3.27566406 142.72859375 -3.09570312 141.9609375 C-2.90556641 141.19265625 -2.71542969 140.424375 -2.51953125 139.6328125 C-2.34099609 138.85679687 -2.16246094 138.08078125 -1.97851562 137.28125 C-0.59289732 131.51867857 -0.59289732 131.51867857 1.66796875 129.2578125 C2.65796875 129.5878125 3.64796875 129.9178125 4.66796875 130.2578125 C14.81156097 131.18786176 14.81156097 131.18786176 23.66796875 127.2578125 C27.07180029 122.29870545 29.11919664 118.42336621 28.13536072 112.33660889 C27.19810438 108.16801971 25.63093681 104.21708352 24.125 100.2265625 C23.76466675 99.25413605 23.4043335 98.28170959 23.03308105 97.27981567 C22.25802483 95.19024672 21.47985851 93.1018292 20.69888306 91.01446533 C18.63343617 85.49381163 16.59008771 79.96496978 14.54296875 74.4375 C14.12968826 73.32369965 13.71640778 72.20989929 13.29060364 71.06234741 C9.1621453 59.92532129 5.14460062 48.74980122 1.15274048 37.56323242 C0.62127202 36.07388593 0.08950326 34.58464656 -0.44258118 33.09552002 C-0.95330521 31.66524773 -1.46284925 30.23455344 -1.97111511 28.80340576 C-3.37491502 24.86648351 -4.82273715 20.95024375 -6.31494141 17.04589844 C-6.64379837 16.17814789 -6.97265533 15.31039734 -7.31147766 14.41635132 C-7.95058222 12.73449092 -8.59724336 11.05547754 -9.25236511 9.37979126 C-9.53880386 8.62330292 -9.82524261 7.86681458 -10.12036133 7.08740234 C-10.3786824 6.41929535 -10.63700348 5.75118835 -10.90315247 5.06283569 C-11.33203125 3.2578125 -11.33203125 3.2578125 -10.33203125 0.2578125 C-6.64398096 -0.77945164 -3.75101058 -0.56591649 0 0 Z " fill="#000000" transform="translate(515.33203125,93.7421875)"/>
<path d="M0 0 C5.24750981 5.49970067 9.73828125 12.18827792 9.73828125 20.02734375 C10.39828125 20.35734375 11.05828125 20.68734375 11.73828125 21.02734375 C7.71613798 23.03841538 2.84543208 23.07059812 -1.57421875 23.65234375 C-2.62029297 23.79929688 -3.66636719 23.94625 -4.74414062 24.09765625 C-6.26297852 24.29875 -6.26297852 24.29875 -7.8125 24.50390625 C-9.19949097 24.69073975 -9.19949097 24.69073975 -10.61450195 24.88134766 C-13.42001308 25.03607381 -15.57987795 24.86944119 -18.26171875 24.02734375 C-20.05572397 21.08004945 -21.1728307 18.2940079 -22.26171875 15.02734375 C-29.80103636 11.80756487 -37.83909411 10.65847583 -45.63671875 13.40234375 C-49.22370883 14.75200361 -49.22370883 14.75200361 -51.26171875 17.02734375 C-52.43108489 21.41246678 -52.43022087 24.0275017 -50.26171875 28.02734375 C-43.49233739 31.99110929 -34.94397713 33.05660585 -27.32421875 34.46484375 C-15.1113392 36.88143083 -1.85255442 39.6160215 6.265625 49.9765625 C11.89634616 58.54505122 13.12639463 67.48020629 11.2734375 77.5546875 C8.33992611 87.43142112 2.7160994 94.14257414 -6.26171875 99.02734375 C-20.82707037 106.89419142 -38.42792997 106.66065122 -54.26171875 103.02734375 C-61.17224163 100.95915848 -67.7271525 97.70632488 -73.26171875 93.02734375 C-73.26171875 92.36734375 -73.26171875 91.70734375 -73.26171875 91.02734375 C-73.92171875 91.02734375 -74.58171875 91.02734375 -75.26171875 91.02734375 C-80.13499033 85.40747068 -82.56047227 79.1755636 -84.26171875 72.02734375 C-78.35270968 70.20792625 -72.40055864 69.02374619 -66.32421875 67.90234375 C-65.35419922 67.72058594 -64.38417969 67.53882813 -63.38476562 67.3515625 C-61.01095101 66.90720311 -58.63661576 66.46587466 -56.26171875 66.02734375 C-55.97039062 66.7028125 -55.6790625 67.37828125 -55.37890625 68.07421875 C-52.76272661 73.76728891 -50.92046367 77.19797129 -45.26171875 80.02734375 C-38.54862815 82.26504062 -28.96211347 82.31991366 -22.44921875 79.33984375 C-19.13783295 76.93746581 -17.92770988 76.02329056 -17.26171875 72.02734375 C-16.93877398 68.96237726 -16.93877398 68.96237726 -18.26171875 66.02734375 C-24.36368866 60.26467719 -32.64316388 59.41578287 -40.57421875 58.02734375 C-55.30314575 55.42500637 -67.53019034 51.58899923 -77.74609375 40.22265625 C-82.50867657 33.32427599 -81.92748058 25.04977386 -81.26171875 17.02734375 C-79.00814992 7.3472413 -73.16706093 0.57849195 -64.8671875 -4.62109375 C-46.28206591 -14.26195143 -16.45940763 -14.35578731 0 0 Z " fill="#000000" transform="translate(490.26171875,102.97265625)"/>
<path d="M0 0 C1.06927734 -0.020625 2.13855469 -0.04125 3.24023438 -0.0625 C16.59140938 -0.1270374 27.75577265 2.86773457 37.81640625 11.9453125 C43.24055113 17.79088217 46.23561105 24.25833065 45.9375 32.25 C45.26170898 32.33564209 44.58591797 32.42128418 43.88964844 32.50952148 C40.8219445 32.89970265 37.7547236 33.29356148 34.6875 33.6875 C33.62402344 33.82220703 32.56054688 33.95691406 31.46484375 34.09570312 C30.44003906 34.22783203 29.41523437 34.35996094 28.359375 34.49609375 C27.41674805 34.61654053 26.47412109 34.7369873 25.50292969 34.86108398 C23.26036742 35.20105369 21.12380037 35.65394074 18.9375 36.25 C18.48310547 35.21939453 18.48310547 35.21939453 18.01953125 34.16796875 C17.60058594 33.26691406 17.18164062 32.36585937 16.75 31.4375 C16.34394531 30.54417969 15.93789063 29.65085937 15.51953125 28.73046875 C13.6197525 25.7518033 12.14466149 24.70360557 8.9375 23.25 C1.61943953 21.75226224 -6.48051105 21.18033273 -13.0625 25.25 C-15.36971898 28.37153156 -16.11736946 30.07030662 -15.9375 33.9375 C-14.47358339 37.80642248 -12.48751231 39.05749442 -8.7421875 40.75390625 C-1.55918158 43.27566964 6.04503842 44.44639276 13.49609375 45.91210938 C25.8918299 48.44608133 36.56749688 51.53963661 44.3515625 62.18359375 C49.09150584 70.11191624 49.408585 80.40377101 47.18359375 89.24609375 C46.23748602 91.68371248 45.17851218 93.95022218 43.9375 96.25 C43.40125 97.301875 42.865 98.35375 42.3125 99.4375 C33.96591301 109.32161617 21.50639484 113.90865549 8.9375 115.25 C-7.82123147 116.39951588 -22.18746242 113.2264392 -36.375 104.125 C-42.07333616 98.0291055 -46.38366682 90.45762886 -48.0625 82.25 C-42.40682701 80.10740716 -36.62030102 79.15845566 -30.6875 78.125 C-29.66527344 77.94324219 -28.64304687 77.76148438 -27.58984375 77.57421875 C-25.08141041 77.12879601 -22.57232246 76.68751536 -20.0625 76.25 C-19.80202881 76.87140869 -19.54155762 77.49281738 -19.27319336 78.13305664 C-18.92393799 78.94637451 -18.57468262 79.75969238 -18.21484375 80.59765625 C-17.87187256 81.40468994 -17.52890137 82.21172363 -17.17553711 83.04321289 C-14.81683931 87.71973612 -10.84854899 89.66579105 -6.0625 91.25 C2.26413447 92.05189313 9.95934006 92.31258662 16.9375 87.25 C18.87525585 84.30461111 18.94663111 82.69742447 18.875 79.1875 C17.65878669 75.37669831 16.2527217 74.45422247 12.9375 72.25 C10.37536347 71.45308128 7.98861391 70.83497906 5.375 70.3125 C3.85917154 69.97748175 2.34355517 69.64150279 0.828125 69.3046875 C-0.8019204 68.95237031 -2.4321339 68.60083015 -4.0625 68.25 C-27.42749457 63.21767714 -27.42749457 63.21767714 -36.0625 56.25 C-36.0625 55.59 -36.0625 54.93 -36.0625 54.25 C-37.0525 53.92 -38.0425 53.59 -39.0625 53.25 C-40.4140625 51.32421875 -40.4140625 51.32421875 -41.6875 48.9375 C-42.11289062 48.15761719 -42.53828125 47.37773437 -42.9765625 46.57421875 C-46.48007886 39.07568554 -45.82323515 29.92165824 -43.0625 22.25 C-37.35035408 11.0887675 -28.77430491 5.15931971 -17.0625 1.25 C-11.39068777 -0.07944237 -5.79886115 0.02727272 0 0 Z " fill="#000000" transform="translate(868.0625,92.75)"/>
<path d="M0 0 C0.98417055 7.45698455 1.03341447 14.64718425 0.78515625 22.15429688 C0.77097656 23.00958984 0.75679687 23.86488281 0.7421875 24.74609375 C0.7201123 25.51622803 0.69803711 26.2863623 0.67529297 27.07983398 C0.83602295 28.03031616 0.83602295 28.03031616 1 29 C4.38805161 31.25870108 5.77350741 31.29259413 9.76171875 31.4140625 C10.87998047 31.45273438 11.99824219 31.49140625 13.15039062 31.53125 C14.31763672 31.5621875 15.48488281 31.593125 16.6875 31.625 C17.86634766 31.66367188 19.04519531 31.70234375 20.25976562 31.7421875 C23.17291668 31.83654057 26.08643703 31.91936242 29 32 C29 39.59 29 47.18 29 55 C19.76 55 10.52 55 1 55 C0.95383914 61.6163896 0.91408844 68.2322099 0.89013672 74.84863281 C0.8801411 77.09474593 0.86654012 79.34084625 0.84912109 81.58691406 C0.82458743 84.83401672 0.8134522 88.08094586 0.8046875 91.328125 C0.79436493 92.31613098 0.78404236 93.30413696 0.77340698 94.32208252 C0.77232762 101.18208404 0.85019795 108.43579819 3 115 C6.88795507 118.65911149 10.48340744 119.16003635 15.7265625 119.1015625 C19.50690947 118.93268102 23.24891985 118.48625113 27 118 C28.60614551 126.08808989 29.26305952 133.7574683 29 142 C14.22314427 144.70868714 -2.78804825 146.60817586 -16.125 138.125 C-23.50978873 132.52839487 -27.104179 124.99129722 -29 116 C-29.1475647 114.03656481 -29.24737527 112.06932463 -29.31640625 110.1015625 C-29.35838135 108.91320801 -29.40035645 107.72485352 -29.44360352 106.50048828 C-29.48283936 105.22157715 -29.5220752 103.94266602 -29.5625 102.625 C-29.6049585 101.31128418 -29.64741699 99.99756836 -29.69116211 98.64404297 C-30.12382472 84.42962541 -30.09076322 70.21957094 -30 56 C-36.93 55.505 -36.93 55.505 -44 55 C-44 47.41 -44 39.82 -44 32 C-40.04 32 -36.08 32 -32 32 C-31.67 31.34 -31.34 30.68 -31 30 C-30.67 30.33 -30.34 30.66 -30 31 C-30 22.42 -30 13.84 -30 5 C-25.98920826 3.66306942 -22.96490952 2.70959104 -18.92578125 2.1484375 C-18.01119141 2.01953125 -17.09660156 1.890625 -16.15429688 1.7578125 C-14.74760742 1.56832031 -14.74760742 1.56832031 -13.3125 1.375 C-11.8884082 1.17390625 -11.8884082 1.17390625 -10.43554688 0.96875 C-3.45165019 0 -3.45165019 0 0 0 Z " fill="#000000" transform="translate(659,63)"/>
<path d="M0 0 C0.02918874 3.70831663 0.04686218 7.41660342 0.0625 11.125 C0.07087891 12.17171875 0.07925781 13.2184375 0.08789062 14.296875 C0.10375207 19.3090905 0.08177213 24.07665912 -1 29 C2.31026609 29.97299662 5.41709908 30.19346782 8.859375 30.31640625 C9.97441406 30.35830078 11.08945312 30.40019531 12.23828125 30.44335938 C13.39714844 30.48267578 14.55601562 30.52199219 15.75 30.5625 C16.92433594 30.60568359 18.09867188 30.64886719 19.30859375 30.69335938 C22.20559355 30.79934717 25.1027815 30.90016916 28 31 C28 38.59 28 46.18 28 54 C18.76 54.33 9.52 54.66 0 55 C-0.069069 62.09875826 -0.12874563 69.19633882 -0.16479492 76.29516602 C-0.17983145 78.7073157 -0.20026599 81.11943828 -0.22631836 83.53149414 C-0.26292732 87.00934564 -0.27977829 90.48683394 -0.29296875 93.96484375 C-0.30845261 95.03395493 -0.32393646 96.1030661 -0.33988953 97.20457458 C-0.34128936 103.50819245 0.11774186 109.28551988 3 115 C5.09523705 116.70619637 5.09523705 116.70619637 8 117 C8.99386719 117.19335938 8.99386719 117.19335938 10.0078125 117.390625 C15.73972204 118.30932827 20.45162604 117.51984668 26 116 C26.33747548 118.87456792 26.67010463 121.74956059 27 124.625 C27.09539062 125.43324219 27.19078125 126.24148437 27.2890625 127.07421875 C27.78253617 131.40973739 28.11320717 135.62737311 28 140 C14.79741341 144.95096997 -1.4154334 144.72014457 -14.3125 138.96875 C-21.8784215 134.72724855 -26.09606416 127.90045166 -29.1661377 119.97369385 C-30.77780216 114.22622609 -30.60378907 108.39205048 -30.609375 102.4609375 C-30.62438821 101.08515508 -30.64112185 99.70939047 -30.65948486 98.33364868 C-30.70281953 94.74659306 -30.72308109 91.15978036 -30.73822021 87.57250977 C-30.75791504 83.89845615 -30.79987018 80.22466029 -30.83984375 76.55078125 C-30.91477796 69.36722477 -30.96322791 62.18387177 -31 55 C-36.61 54.67 -42.22 54.34 -48 54 C-48.02682987 50.35411831 -48.04675569 46.70843154 -48.0625 43.0625 C-48.07087891 42.02158203 -48.07925781 40.98066406 -48.08789062 39.90820312 C-48.09272461 38.42416992 -48.09272461 38.42416992 -48.09765625 36.91015625 C-48.10289307 35.99371338 -48.10812988 35.07727051 -48.11352539 34.13305664 C-48 32 -48 32 -47 31 C-44.13732433 30.92674832 -41.299281 30.90761795 -38.4375 30.9375 C-37.63119141 30.94201172 -36.82488281 30.94652344 -35.99414062 30.95117188 C-33.99606244 30.96299482 -31.99802217 30.98093086 -30 31 C-30.03552979 30.22285645 -30.07105957 29.44571289 -30.10766602 28.64501953 C-30.26485529 25.13857034 -30.41378153 21.63181824 -30.5625 18.125 C-30.61857422 16.90167969 -30.67464844 15.67835937 -30.73242188 14.41796875 C-30.78076172 13.25136719 -30.82910156 12.08476563 -30.87890625 10.8828125 C-30.9260376 9.80402832 -30.97316895 8.72524414 -31.02172852 7.61376953 C-31 5 -31 5 -30 3 C-28.16162109 2.51342773 -28.16162109 2.51342773 -25.7734375 2.18359375 C-24.90589844 2.05919922 -24.03835938 1.93480469 -23.14453125 1.80664062 C-21.77361328 1.62391602 -21.77361328 1.62391602 -20.375 1.4375 C-19.48425781 1.31181641 -18.59351563 1.18613281 -17.67578125 1.05664062 C-15.92624408 0.8105717 -14.17591659 0.57004952 -12.42480469 0.33544922 C-10.91239276 0.12622107 -9.40196316 -0.09865527 -7.89550781 -0.34716797 C-4.76477615 -0.86182007 -3.07461102 -1.02487034 0 0 Z " fill="#000000" transform="translate(974,64)"/>
<path d="M0 0 C4.79225757 4.68576296 7.70153791 9.70353407 8.16796875 16.41796875 C7.88596359 23.15475878 5.50639929 28.0256676 1 33 C-3.98750557 37.20188417 -10.87879561 39.32697159 -17.36328125 38.8125 C-25.27661771 37.32293078 -30.31370328 33.37857054 -35 27 C-37.93359748 20.8466004 -38.04664405 14.20149944 -35.9375 7.75 C-31.7387438 1.79047507 -27.59061905 -2.65747931 -20.390625 -4.62890625 C-13.03065864 -5.77138469 -6.1087484 -4.26794252 0 0 Z " fill="#A2CBF3" transform="translate(228,9)"/>
<path d="M0 0 C3.55374309 1.89382063 5.624453 4.24890601 7.4375 7.875 C8.34208921 12.90049562 7.97524389 16.48669051 5.1875 20.8125 C1.9017501 24.0982499 -0.79486228 25.2883615 -5.4375 25.3125 C-10.35967299 25.1993466 -13.04506698 23.67565687 -16.75 20.5 C-19.30727015 17.43127582 -19.3412635 13.92609349 -19.27734375 10.0625 C-18.8083752 6.57495927 -17.29403799 4.5958851 -15 2 C-10.1048738 -1.52904447 -5.64662853 -1.64651243 0 0 Z " fill="#A6CEF4" transform="translate(247,62)"/>
<path d="M0 0 C0.33 0 0.66 0 1 0 C1 8.25 1 16.5 1 25 C0.34 25.33 -0.32 25.66 -1 26 C-1.04898437 25.00097656 -1.09796875 24.00195312 -1.1484375 22.97265625 C-1.22320313 21.68230469 -1.29796875 20.39195312 -1.375 19.0625 C-1.44460937 17.77472656 -1.51421875 16.48695313 -1.5859375 15.16015625 C-1.72257812 14.11730469 -1.85921875 13.07445312 -2 12 C-2.66 11.67 -3.32 11.34 -4 11 C-3.34 11 -2.68 11 -2 11 C-2 10.01 -2 9.02 -2 8 C-1.34 8 -0.68 8 0 8 C0 5.36 0 2.72 0 0 Z " fill="#CCE9FD" transform="translate(24,131)"/>
<path d="M0 0 C0.99 0.33 1.98 0.66 3 1 C6.62019052 1.03013238 10.22868701 0.93321241 13.84765625 0.83984375 C17 1 17 1 19 3 C12.6069879 4.96475549 7.352721 5.41752596 1 3 C0.34 2.34 -0.32 1.68 -1 1 C-0.67 0.67 -0.34 0.34 0 0 Z " fill="#AFD3F6" transform="translate(203,43)"/>
<path d="M0 0 C0.66 0.33 1.32 0.66 2 1 C0.68 4.3 -0.64 7.6 -2 11 C-2.66 10.67 -3.32 10.34 -4 10 C-3.5205537 5.78087253 -2.83374881 3.20336822 0 0 Z " fill="#ACD0F6" transform="translate(195,13)"/>
<path d="M0 0 C3.63 0.66 7.26 1.32 11 2 C11 2.33 11 2.66 11 3 C2.42857143 4.42857143 2.42857143 4.42857143 -1 2 C-0.67 1.34 -0.34 0.68 0 0 Z " fill="#B2D6F7" transform="translate(234,83)"/>
<path d="M0 0 C3 1 3 1 3 1 Z " fill="#000000" transform="translate(522,249)"/>
<path d="" fill="#E2FFFF" transform="translate(0,0)"/>
<path d="M0 0 C3 1 3 1 3 1 Z " fill="#000000" transform="translate(994,93)"/>
<path d="M0 0 C2 1 2 1 2 1 Z " fill="#DFDFFF" transform="translate(130,249)"/>
<path d="M0 0 C2 1 2 1 2 1 Z " fill="#D4FFFF" transform="translate(157,244)"/>
<path d="M0 0 C2 1 2 1 2 1 Z " fill="#000000" transform="translate(982,208)"/>
<path d="" fill="#000000" transform="translate(0,0)"/>
<path d="" fill="#FFFFFF" transform="translate(0,0)"/>
<path d="" fill="#000000" transform="translate(0,0)"/>
<path d="" fill="#FFFFFF" transform="translate(0,0)"/>
<path d="" fill="#9FDFFF" transform="translate(0,0)"/>
<path d="" fill="#FFFFFF" transform="translate(0,0)"/>
<path d="" fill="#FFFFFF" transform="translate(0,0)"/>
<path d="M0 0 C2 1 2 1 2 1 Z " fill="#FFFFFF" transform="translate(29,101)"/>
<path d="M0 0 C2 1 2 1 2 1 Z " fill="#000000" transform="translate(984,93)"/>
<path d="M0 0 C2 1 2 1 2 1 Z " fill="#000000" transform="translate(848,93)"/>
<path d="M0 0 C2 1 2 1 2 1 Z " fill="#FFFFFF" transform="translate(206,74)"/>
<path d="" fill="#FFFFFF" transform="translate(0,0)"/>
<path d="M0 0 C2 1 2 1 2 1 Z " fill="#D4FFFF" transform="translate(134,38)"/>
<path d="" fill="#FFFFFF" transform="translate(0,0)"/>
<path d="M0 0 C2 1 2 1 2 1 Z " fill="#FFFFFF" transform="translate(201,5)"/>
<path d="" fill="#FFFFFF" transform="translate(0,0)"/>
<path d="" fill="#7FFFFF" transform="translate(0,0)"/>
<path d="" fill="#FFFFFF" transform="translate(0,0)"/>
<path d="" fill="#000000" transform="translate(0,0)"/>
<path d="" fill="#000000" transform="translate(0,0)"/>
<path d="" fill="#FFFFFF" transform="translate(0,0)"/>
<path d="" fill="#FFFFFF" transform="translate(0,0)"/>
<path d="" fill="#FFFFFF" transform="translate(0,0)"/>
<path d="" fill="#FFFFFF" transform="translate(0,0)"/>
<path d="" fill="#FFFFFF" transform="translate(0,0)"/>
<path d="" fill="#FFFFFF" transform="translate(0,0)"/>
<path d="" fill="#FFFFFF" transform="translate(0,0)"/>
<path d="" fill="#000000" transform="translate(0,0)"/>
<path d="" fill="#FFFFFF" transform="translate(0,0)"/>
<path d="" fill="#7FFFFF" transform="translate(0,0)"/>
<path d="" fill="#FFFFFF" transform="translate(0,0)"/>
<path d="" fill="#FFFFFF" transform="translate(0,0)"/>
<path d="" fill="#CCCCFF" transform="translate(0,0)"/>
<path d="" fill="#FFFFFF" transform="translate(0,0)"/>
<path d="" fill="#AAFFFF" transform="translate(0,0)"/>
<path d="" fill="#FFFFFF" transform="translate(0,0)"/>
<path d="" fill="#AAFFFF" transform="translate(0,0)"/>
<path d="" fill="#FFFFFF" transform="translate(0,0)"/>
<path d="" fill="#FFFFFF" transform="translate(0,0)"/>
<path d="" fill="#AAFFFF" transform="translate(0,0)"/>
<path d="" fill="#FFFFFF" transform="translate(0,0)"/>
<path d="" fill="#AAFFFF" transform="translate(0,0)"/>
<path d="" fill="#FFFFFF" transform="translate(0,0)"/>
<path d="" fill="#FFFFFF" transform="translate(0,0)"/>
<path d="" fill="#FFFFFF" transform="translate(0,0)"/>
<path d="" fill="#FFFFFF" transform="translate(0,0)"/>
<path d="" fill="#000000" transform="translate(0,0)"/>
<path d="" fill="#FFFFFF" transform="translate(0,0)"/>
<path d="" fill="#7FFFFF" transform="translate(0,0)"/>
<path d="" fill="#FFFFFF" transform="translate(0,0)"/>
<path d="" fill="#FFFFFF" transform="translate(0,0)"/>
<path d="" fill="#FFFFFF" transform="translate(0,0)"/>
<path d="" fill="#FFFFFF" transform="translate(0,0)"/>
<path d="" fill="#000000" transform="translate(0,0)"/>
<path d="" fill="#000000" transform="translate(0,0)"/>
<path d="" fill="#000000" transform="translate(0,0)"/>
<path d="" fill="#BFFFFF" transform="translate(0,0)"/>
<path d="" fill="#000000" transform="translate(0,0)"/>
<path d="" fill="#FFFFFF" transform="translate(0,0)"/>
<path d="" fill="#000000" transform="translate(0,0)"/>
<path d="" fill="#000000" transform="translate(0,0)"/>
<path d="" fill="#7FFFFF" transform="translate(0,0)"/>
<path d="" fill="#FFFFFF" transform="translate(0,0)"/>
<path d="" fill="#000000" transform="translate(0,0)"/>
<path d="" fill="#FFFFFF" transform="translate(0,0)"/>
<path d="" fill="#000000" transform="translate(0,0)"/>
<path d="" fill="#000000" transform="translate(0,0)"/>
<path d="" fill="#FFFFFF" transform="translate(0,0)"/>
<path d="" fill="#000000" transform="translate(0,0)"/>
<path d="" fill="#000000" transform="translate(0,0)"/>
<path d="" fill="#000000" transform="translate(0,0)"/>
<path d="" fill="#000000" transform="translate(0,0)"/>
<path d="" fill="#000000" transform="translate(0,0)"/>
<path d="" fill="#000000" transform="translate(0,0)"/>
<path d="" fill="#FFFFFF" transform="translate(0,0)"/>
<path d="" fill="#000000" transform="translate(0,0)"/>
<path d="" fill="#000000" transform="translate(0,0)"/>
<path d="" fill="#000000" transform="translate(0,0)"/>
<path d="" fill="#000000" transform="translate(0,0)"/>
<path d="" fill="#000000" transform="translate(0,0)"/>
<path d="" fill="#FFFFFF" transform="translate(0,0)"/>
<path d="" fill="#000000" transform="translate(0,0)"/>
<path d="" fill="#000000" transform="translate(0,0)"/>
<path d="" fill="#FFFFFF" transform="translate(0,0)"/>
<path d="" fill="#000000" transform="translate(0,0)"/>
<path d="" fill="#000000" transform="translate(0,0)"/>
<path d="" fill="#FFFFFF" transform="translate(0,0)"/>
<path d="" fill="#000000" transform="translate(0,0)"/>
<path d="" fill="#000000" transform="translate(0,0)"/>
<path d="" fill="#000000" transform="translate(0,0)"/>
<path d="" fill="#000000" transform="translate(0,0)"/>
<path d="" fill="#000000" transform="translate(0,0)"/>
<path d="" fill="#000000" transform="translate(0,0)"/>
<path d="" fill="#000000" transform="translate(0,0)"/>
<path d="" fill="#000000" transform="translate(0,0)"/>
<path d="" fill="#000000" transform="translate(0,0)"/>
<path d="" fill="#FFFFFF" transform="translate(0,0)"/>
<path d="" fill="#FFFFFF" transform="translate(0,0)"/>
<path d="" fill="#000000" transform="translate(0,0)"/>
<path d="" fill="#000000" transform="translate(0,0)"/>
<path d="" fill="#000000" transform="translate(0,0)"/>
<path d="" fill="#000000" transform="translate(0,0)"/>
<path d="" fill="#000000" transform="translate(0,0)"/>
<path d="" fill="#000000" transform="translate(0,0)"/>
<path d="" fill="#AAFFFF" transform="translate(0,0)"/>
<path d="" fill="#000000" transform="translate(0,0)"/>
<path d="" fill="#000000" transform="translate(0,0)"/>
<path d="" fill="#000000" transform="translate(0,0)"/>
<path d="" fill="#000000" transform="translate(0,0)"/>
<path d="" fill="#000000" transform="translate(0,0)"/>
<path d="" fill="#000000" transform="translate(0,0)"/>
<path d="" fill="#000000" transform="translate(0,0)"/>
<path d="" fill="#000000" transform="translate(0,0)"/>
<path d="" fill="#000000" transform="translate(0,0)"/>
<path d="" fill="#000000" transform="translate(0,0)"/>
<path d="" fill="#000000" transform="translate(0,0)"/>
<path d="" fill="#000000" transform="translate(0,0)"/>
<path d="" fill="#000000" transform="translate(0,0)"/>
<path d="" fill="#000000" transform="translate(0,0)"/>
<path d="" fill="#000000" transform="translate(0,0)"/>
<path d="" fill="#000000" transform="translate(0,0)"/>
<path d="" fill="#000000" transform="translate(0,0)"/>
<path d="" fill="#000000" transform="translate(0,0)"/>
<path d="" fill="#BFBFFF" transform="translate(0,0)"/>
<path d="" fill="#000000" transform="translate(0,0)"/>
<path d="" fill="#000000" transform="translate(0,0)"/>
<path d="" fill="#000000" transform="translate(0,0)"/>
<path d="" fill="#000000" transform="translate(0,0)"/>
<path d="" fill="#000000" transform="translate(0,0)"/>
<path d="" fill="#000000" transform="translate(0,0)"/>
<path d="" fill="#000000" transform="translate(0,0)"/>
<path d="" fill="#000000" transform="translate(0,0)"/>
<path d="" fill="#FFFFFF" transform="translate(0,0)"/>
<path d="" fill="#FFFFFF" transform="translate(0,0)"/>
<path d="" fill="#000000" transform="translate(0,0)"/>
<path d="" fill="#FFFFFF" transform="translate(0,0)"/>
<path d="" fill="#000000" transform="translate(0,0)"/>
<path d="" fill="#FFFFFF" transform="translate(0,0)"/>
<path d="" fill="#000000" transform="translate(0,0)"/>
<path d="" fill="#FFFFFF" transform="translate(0,0)"/>
<path d="" fill="#000000" transform="translate(0,0)"/>
<path d="" fill="#000000" transform="translate(0,0)"/>
<path d="" fill="#FFFFFF" transform="translate(0,0)"/>
<path d="" fill="#000000" transform="translate(0,0)"/>
<path d="" fill="#000000" transform="translate(0,0)"/>
<path d="" fill="#000000" transform="translate(0,0)"/>
<path d="" fill="#FFFFFF" transform="translate(0,0)"/>
<path d="" fill="#000000" transform="translate(0,0)"/>
<path d="" fill="#000000" transform="translate(0,0)"/>
<path d="" fill="#000000" transform="translate(0,0)"/>
<path d="" fill="#000000" transform="translate(0,0)"/>
<path d="" fill="#000000" transform="translate(0,0)"/>
<path d="" fill="#000000" transform="translate(0,0)"/>
<path d="" fill="#000000" transform="translate(0,0)"/>
<path d="" fill="#00007F" transform="translate(0,0)"/>
<path d="" fill="#000000" transform="translate(0,0)"/>
<path d="" fill="#7F7F7F" transform="translate(0,0)"/>
<path d="" fill="#FFFFFF" transform="translate(0,0)"/>
<path d="" fill="#FFFFFF" transform="translate(0,0)"/>
<path d="" fill="#FFFFFF" transform="translate(0,0)"/>
<path d="" fill="#FFFFFF" transform="translate(0,0)"/>
<path d="" fill="#FFFFFF" transform="translate(0,0)"/>
<path d="" fill="#FFFFFF" transform="translate(0,0)"/>
<path d="" fill="#FFFFFF" transform="translate(0,0)"/>
<path d="" fill="#000000" transform="translate(0,0)"/>
<path d="" fill="#000000" transform="translate(0,0)"/>
<path d="" fill="#FFFFFF" transform="translate(0,0)"/>
<path d="" fill="#AAFFFF" transform="translate(0,0)"/>
<path d="" fill="#FFFFFF" transform="translate(0,0)"/>
<path d="" fill="#7FFFFF" transform="translate(0,0)"/>
<path d="" fill="#FFFFFF" transform="translate(0,0)"/>
<path d="" fill="#AAFFFF" transform="translate(0,0)"/>
<path d="" fill="#FFFFFF" transform="translate(0,0)"/>
<path d="" fill="#AAFFFF" transform="translate(0,0)"/>
<path d="" fill="#CCCCFF" transform="translate(0,0)"/>
<path d="" fill="#FFFFFF" transform="translate(0,0)"/>
<path d="" fill="#FFFFFF" transform="translate(0,0)"/>
<path d="" fill="#FFFFFF" transform="translate(0,0)"/>
<path d="" fill="#FFFFFF" transform="translate(0,0)"/>
<path d="" fill="#FFFFFF" transform="translate(0,0)"/>
<path d="" fill="#FFFFFF" transform="translate(0,0)"/>
<path d="" fill="#BFFFFF" transform="translate(0,0)"/>
<path d="" fill="#FFFFFF" transform="translate(0,0)"/>
<path d="" fill="#7FFFFF" transform="translate(0,0)"/>
<path d="" fill="#FFFFFF" transform="translate(0,0)"/>
<path d="" fill="#FFFFFF" transform="translate(0,0)"/>
</svg>
