<svg id="svg" version="1.1" xmlns="http://www.w3.org/2000/svg" xmlns:xlink="http://www.w3.org/1999/xlink" width="400" height="400" viewBox="0, 0, 400,400"><g id="svgg"><path id="path0" d="M156.273 43.550 C 142.232 46.740,141.206 60.493,154.510 67.188 L 157.227 68.555 165.039 68.447 C 170.838 68.367,173.858 68.504,176.758 68.977 C 182.185 69.862,185.186 68.931,187.373 65.685 C 194.143 55.639,172.104 39.954,156.273 43.550 M108.451 45.340 C 86.970 48.299,63.523 66.616,52.723 88.877 C 38.152 118.910,45.320 144.415,65.159 133.128 C 69.415 130.706,71.912 127.851,76.365 120.313 C 84.522 106.503,94.371 98.115,113.506 88.681 C 128.048 81.512,132.030 78.254,134.019 71.899 C 138.925 56.222,126.108 42.908,108.451 45.340 M315.017 141.955 C 300.542 146.488,288.111 164.983,290.147 178.955 C 291.491 188.173,296.810 192.007,303.711 188.730 C 309.020 186.210,311.217 182.197,312.938 171.879 C 314.225 164.158,315.768 160.845,320.669 155.273 C 325.372 149.927,326.681 147.154,325.709 144.599 C 324.647 141.807,319.529 140.542,315.017 141.955 M219.319 158.123 C 217.214 159.453,216.027 161.309,212.070 169.455 C 199.086 196.184,185.087 207.881,157.075 215.407 C 142.908 219.213,138.542 221.979,138.515 227.164 C 138.445 240.540,170.354 236.713,193.970 220.514 C 222.435 200.989,241.038 165.819,226.769 158.504 C 224.522 157.352,220.838 157.163,219.319 158.123 M364.453 162.939 C 361.440 164.140,361.100 166.107,362.569 173.842 C 365.498 189.264,360.715 201.841,348.110 211.865 C 338.600 219.427,346.013 220.802,356.981 213.510 C 367.251 206.682,373.438 194.019,373.438 179.823 C 373.438 167.799,369.731 160.834,364.453 162.939 M293.164 259.456 C 288.434 261.109,287.103 265.741,289.696 271.520 C 293.465 279.918,307.581 280.630,309.397 272.513 C 311.186 264.523,301.335 256.599,293.164 259.456 M257.517 261.313 C 243.018 265.213,230.880 281.244,233.184 293.453 C 235.077 303.485,243.055 303.323,254.101 293.029 C 258.207 289.202,260.635 287.752,267.225 285.191 C 273.665 282.687,276.113 280.610,277.735 276.276 C 281.702 265.674,270.933 257.704,257.517 261.313 M325.306 329.025 C 324.601 329.735,323.098 331.837,321.967 333.696 C 315.361 344.557,306.206 351.472,291.602 356.633 C 285.715 358.713,284.167 359.569,283.413 361.158 C 280.288 367.744,291.409 369.225,303.863 363.883 C 321.124 356.479,336.774 338.116,332.639 330.119 C 331.289 327.509,327.390 326.928,325.306 329.025 " stroke="none" fill="#effbfb" fill-rule="evenodd"></path><path id="path1" d="M131.904 27.197 C 131.867 27.227,130.331 27.364,128.493 27.501 C 126.654 27.638,124.808 27.815,124.391 27.893 C 123.974 27.971,122.642 28.150,121.432 28.289 C 120.221 28.429,118.815 28.631,118.307 28.739 C 117.799 28.846,116.895 29.003,116.300 29.088 C 115.704 29.173,114.649 29.412,113.956 29.620 C 113.263 29.828,111.377 30.293,109.766 30.654 C 105.112 31.696,91.014 36.654,90.234 37.522 C 90.127 37.642,89.506 37.955,88.854 38.218 C 86.127 39.319,76.071 44.967,75.090 45.948 C 74.785 46.253,74.015 46.772,73.380 47.100 C 72.744 47.429,71.911 47.996,71.528 48.361 C 71.145 48.725,70.427 49.287,69.932 49.609 C 68.632 50.455,66.623 52.100,66.471 52.441 C 66.400 52.603,66.180 52.734,65.983 52.734 C 65.786 52.734,65.309 53.042,64.923 53.418 C 64.536 53.794,62.922 55.244,61.335 56.641 C 59.748 58.037,58.072 59.531,57.610 59.961 C 56.243 61.232,49.917 68.491,48.438 70.486 C 47.686 71.500,46.807 72.624,46.484 72.983 C 45.968 73.560,41.664 79.760,40.933 80.982 C 33.795 92.902,27.214 109.760,25.962 119.336 C 25.807 120.520,25.395 123.177,25.233 124.039 C 25.083 124.839,24.759 127.599,24.388 131.250 C 24.010 134.963,23.947 144.160,24.268 148.633 C 24.673 154.262,24.804 155.248,26.380 164.453 C 26.471 164.990,26.828 166.484,27.172 167.773 C 27.515 169.063,27.881 170.469,27.984 170.898 C 28.233 171.939,28.355 172.349,28.622 173.047 C 28.746 173.369,29.052 174.336,29.304 175.195 C 29.812 176.936,31.798 182.369,32.588 184.180 C 32.869 184.824,33.516 186.318,34.025 187.500 C 39.662 200.576,50.798 215.839,61.465 225.111 C 62.507 226.017,63.875 227.241,64.506 227.832 C 65.136 228.423,65.800 228.906,65.981 228.906 C 66.162 228.906,66.549 229.193,66.840 229.544 C 67.486 230.323,72.524 234.108,75.195 235.823 C 76.270 236.512,77.368 237.266,77.637 237.499 C 77.905 237.731,78.125 237.823,78.125 237.702 C 78.125 237.413,80.038 238.608,81.152 239.593 C 81.636 240.021,82.031 240.257,82.031 240.117 C 82.031 239.978,82.866 240.345,83.887 240.932 C 87.619 243.080,93.213 245.588,98.438 247.457 C 100.693 248.264,102.891 249.050,103.320 249.204 C 106.070 250.191,109.377 251.179,110.547 251.364 C 111.299 251.483,113.145 251.830,114.648 252.134 C 120.788 253.376,120.578 253.343,126.172 253.948 C 133.075 254.694,145.546 254.600,151.563 253.756 C 152.100 253.680,153.418 253.499,154.492 253.353 C 155.566 253.207,158.115 252.737,160.156 252.310 C 162.197 251.882,164.171 251.484,164.543 251.425 C 164.914 251.366,165.339 251.197,165.487 251.050 C 165.634 250.902,166.055 250.781,166.421 250.781 C 170.613 250.781,189.268 242.788,197.735 237.364 C 198.960 236.580,200.103 235.937,200.274 235.937 C 200.446 235.937,201.064 235.541,201.648 235.058 C 202.232 234.575,203.979 233.213,205.531 232.031 C 214.874 224.915,222.705 217.056,229.079 208.398 C 230.345 206.680,231.526 205.215,231.706 205.143 C 231.885 205.072,232.031 204.764,232.031 204.460 C 232.031 204.155,232.207 203.906,232.422 203.906 C 232.637 203.906,232.813 203.732,232.813 203.520 C 232.813 203.307,233.621 201.872,234.609 200.330 C 236.312 197.673,242.184 186.452,242.186 185.851 C 242.187 185.695,242.622 184.641,243.153 183.507 C 245.050 179.458,247.976 169.528,249.402 162.305 C 250.856 154.933,251.354 149.419,251.341 140.820 C 251.332 134.558,251.086 129.886,250.611 126.953 C 250.524 126.416,250.352 125.098,250.227 124.023 C 249.943 121.561,249.705 120.273,249.036 117.578 C 248.743 116.396,248.380 114.639,248.228 113.672 C 248.077 112.705,247.725 111.299,247.446 110.547 C 247.167 109.795,246.562 107.949,246.101 106.445 C 244.580 101.482,241.444 93.805,239.320 89.844 C 235.430 82.590,235.513 82.737,234.800 81.878 C 234.514 81.532,234.404 81.250,234.555 81.250 C 234.707 81.250,234.289 80.566,233.627 79.729 C 232.964 78.892,232.422 78.088,232.422 77.942 C 232.422 77.618,228.709 72.608,225.898 69.141 C 220.661 62.679,216.322 58.304,210.403 53.516 C 208.942 52.334,207.121 50.796,206.358 50.098 C 205.594 49.399,204.806 48.828,204.607 48.828 C 204.287 48.828,201.684 47.039,201.172 46.466 C 200.853 46.110,197.654 44.172,194.846 42.633 C 193.921 42.126,193.076 41.599,192.969 41.461 C 192.728 41.153,183.871 36.719,183.495 36.719 C 183.346 36.719,182.297 36.288,181.163 35.762 C 180.029 35.237,177.168 34.172,174.805 33.397 C 172.441 32.622,170.244 31.883,169.922 31.755 C 169.600 31.628,169.016 31.461,168.626 31.385 C 168.235 31.309,166.565 30.884,164.915 30.441 C 163.264 29.998,161.563 29.585,161.133 29.525 C 160.703 29.464,159.824 29.297,159.180 29.154 C 156.855 28.637,155.977 28.502,150.977 27.894 C 147.091 27.422,132.298 26.881,131.904 27.197 M168.590 43.756 C 179.687 46.584,189.037 55.062,188.602 61.901 C 188.201 68.201,183.949 70.375,174.951 68.880 C 171.505 68.308,170.384 68.288,165.691 68.719 C 145.020 70.618,136.177 48.786,155.511 43.586 C 158.687 42.732,164.888 42.813,168.590 43.756 M118.438 45.348 C 128.606 47.439,136.349 57.169,135.352 66.602 C 134.280 76.749,129.755 81.317,112.990 89.175 C 95.186 97.521,84.754 106.674,75.740 121.859 C 69.936 131.638,62.543 136.667,55.302 135.763 C 36.267 133.384,43.849 91.284,67.582 67.579 C 83.598 51.581,104.444 42.469,118.438 45.348 M328.007 131.489 C 327.964 131.527,326.699 131.656,325.195 131.777 C 317.610 132.386,306.003 136.813,301.782 140.708 C 301.365 141.092,300.877 141.406,300.697 141.406 C 299.991 141.406,295.099 146.109,292.367 149.414 C 291.301 150.703,290.327 151.846,290.201 151.953 C 289.024 152.959,284.678 161.685,283.489 165.430 C 280.975 173.348,280.239 184.222,281.837 189.844 C 281.928 190.166,282.107 191.044,282.235 191.795 C 282.938 195.936,286.830 204.708,289.949 209.180 C 291.976 212.087,300.918 221.094,301.776 221.094 C 301.940 221.094,302.640 221.525,303.331 222.052 C 308.325 225.861,319.523 229.726,326.563 230.070 C 331.542 230.314,337.132 230.065,338.687 229.530 C 339.001 229.422,339.785 229.253,340.430 229.154 C 341.946 228.921,346.872 227.433,347.749 226.942 C 348.122 226.733,348.649 226.561,348.920 226.560 C 349.192 226.559,350.557 225.946,351.953 225.198 C 353.350 224.450,354.756 223.714,355.078 223.563 C 358.408 222.000,364.391 216.795,369.595 210.935 C 371.500 208.791,375.660 200.951,377.056 196.875 C 381.512 183.866,380.028 167.411,373.430 156.688 C 372.789 155.648,372.266 154.683,372.266 154.545 C 372.266 153.764,364.103 144.141,363.440 144.141 C 363.332 144.141,362.857 143.738,362.384 143.245 C 361.455 142.278,356.465 138.672,356.056 138.672 C 355.919 138.672,355.232 138.233,354.529 137.697 C 353.827 137.161,353.135 136.839,352.993 136.981 C 352.851 137.123,352.734 137.035,352.734 136.784 C 352.734 136.533,352.493 136.328,352.197 136.328 C 351.902 136.328,350.715 135.917,349.560 135.416 C 346.318 134.006,345.965 133.875,344.952 133.707 C 344.431 133.620,343.727 133.400,343.387 133.218 C 341.783 132.359,328.687 130.888,328.007 131.489 M11.028 134.766 C 11.028 135.518,11.109 135.825,11.207 135.449 C 11.305 135.073,11.305 134.458,11.207 134.082 C 11.109 133.706,11.028 134.014,11.028 134.766 M322.165 141.608 C 327.788 143.278,327.490 147.534,321.236 154.883 C 315.504 161.618,314.381 164.053,312.912 172.940 C 311.328 182.521,309.023 186.471,303.533 189.008 C 291.521 194.562,285.426 177.514,293.602 161.225 C 299.930 148.616,313.767 139.114,322.165 141.608 M226.940 158.525 C 240.967 165.472,223.401 199.798,195.754 219.466 C 170.953 237.109,136.953 241.306,138.371 226.549 C 138.857 221.491,142.794 219.160,157.882 215.001 C 185.085 207.501,198.660 196.201,211.331 170.508 C 218.139 156.702,220.147 155.161,226.940 158.525 M369.273 163.669 C 374.189 167.986,375.162 182.835,371.286 194.383 C 367.693 205.085,360.913 212.629,351.068 216.881 C 343.603 220.104,340.508 217.362,346.545 212.873 C 360.522 202.480,365.258 190.497,362.237 173.172 C 361.009 166.131,361.146 164.800,363.241 163.392 C 365.215 162.066,367.570 162.174,369.273 163.669 M284.022 213.453 C 284.474 214.218,284.918 214.844,285.010 214.844 C 285.287 214.844,284.019 212.568,283.596 212.306 C 283.379 212.172,283.571 212.688,284.022 213.453 M48.633 228.125 C 49.022 228.555,49.487 228.906,49.666 228.906 C 49.846 228.906,49.691 228.555,49.323 228.125 C 48.956 227.695,48.491 227.344,48.290 227.344 C 48.090 227.344,48.244 227.695,48.633 228.125 M278.125 247.168 C 275.802 247.319,269.932 247.974,268.945 248.192 C 268.303 248.334,265.885 248.906,262.109 249.808 C 261.787 249.885,260.420 250.388,259.072 250.925 C 257.724 251.463,256.538 251.915,256.437 251.931 C 255.731 252.037,249.325 255.246,247.161 256.577 C 245.707 257.471,244.345 258.203,244.134 258.203 C 243.923 258.203,243.750 258.350,243.750 258.529 C 243.750 258.708,242.759 259.537,241.548 260.371 C 240.338 261.205,238.776 262.420,238.078 263.072 C 237.379 263.724,235.994 265.016,234.998 265.943 C 233.586 267.257,228.068 273.859,226.269 276.387 C 225.359 277.665,220.720 286.328,220.945 286.328 C 221.038 286.328,220.865 286.812,220.561 287.402 C 220.257 287.993,219.438 290.146,218.741 292.188 C 217.610 295.499,217.232 296.971,216.631 300.391 C 216.537 300.928,216.347 301.982,216.209 302.734 C 214.457 312.273,216.211 327.792,219.986 336.158 C 220.381 337.032,220.703 337.916,220.703 338.122 C 220.703 338.608,224.351 345.694,225.107 346.677 C 225.273 346.894,226.415 348.494,227.646 350.234 C 230.383 354.105,232.788 356.960,235.313 359.333 C 236.366 360.323,237.728 361.622,238.340 362.220 C 238.952 362.819,239.453 363.198,239.453 363.063 C 239.453 362.781,243.488 366.062,243.685 366.504 C 243.757 366.665,244.052 366.797,244.341 366.797 C 244.630 366.797,245.105 367.017,245.396 367.285 C 246.329 368.144,255.630 372.990,256.540 373.091 C 256.703 373.109,257.188 373.320,257.617 373.560 C 258.047 373.800,258.530 374.024,258.691 374.058 C 258.853 374.093,259.072 374.165,259.180 374.219 C 259.287 374.272,259.536 374.338,259.733 374.365 C 259.930 374.392,260.223 374.546,260.384 374.707 C 260.545 374.868,261.099 375.000,261.614 375.000 C 262.130 375.000,262.877 375.175,263.276 375.388 C 263.675 375.601,264.659 375.880,265.464 376.008 C 266.269 376.136,267.293 376.380,267.741 376.550 C 268.189 376.720,268.643 376.862,268.750 376.866 C 269.294 376.884,273.736 377.464,274.414 377.605 C 276.023 377.941,287.476 377.771,288.924 377.390 C 289.752 377.172,291.383 376.888,292.548 376.759 C 293.713 376.631,294.782 376.454,294.924 376.366 C 295.067 376.278,295.783 376.100,296.517 375.971 C 300.606 375.251,308.518 371.903,314.576 368.331 C 315.825 367.595,317.195 366.796,317.621 366.557 C 318.634 365.987,326.550 359.444,327.472 358.414 C 327.864 357.976,328.743 357.002,329.425 356.250 C 330.106 355.498,331.145 354.239,331.732 353.452 C 332.320 352.665,333.023 351.782,333.295 351.489 C 334.208 350.506,336.243 347.368,336.508 346.532 C 336.653 346.076,336.935 345.703,337.136 345.703 C 337.336 345.703,337.500 345.452,337.500 345.145 C 337.500 344.838,337.776 344.311,338.114 343.973 C 338.451 343.636,338.615 343.359,338.478 343.359 C 338.340 343.359,338.554 342.876,338.952 342.285 C 339.631 341.278,339.954 340.622,341.210 337.695 C 341.780 336.369,342.900 333.144,342.973 332.619 C 342.988 332.516,343.241 331.749,343.536 330.912 C 347.200 320.528,346.936 303.977,342.920 292.224 C 342.289 290.378,341.723 288.691,341.661 288.477 C 341.600 288.262,340.903 286.741,340.111 285.096 C 339.320 283.452,338.672 281.914,338.672 281.678 C 338.672 281.443,338.539 281.250,338.377 281.250 C 338.214 281.250,337.829 280.680,337.521 279.984 C 337.213 279.288,336.423 277.989,335.765 277.097 C 335.108 276.206,333.779 274.360,332.813 272.995 C 328.707 267.201,319.504 259.124,313.086 255.682 C 312.012 255.106,310.599 254.339,309.947 253.977 C 309.295 253.616,308.550 253.277,308.291 253.224 C 308.032 253.171,306.719 252.625,305.375 252.010 C 303.257 251.043,298.592 249.493,296.356 249.014 C 295.962 248.930,295.345 248.767,294.984 248.652 C 294.264 248.424,293.526 248.310,288.867 247.705 C 285.239 247.235,280.639 247.005,278.125 247.168 M101.367 258.594 C 101.797 258.778,102.412 258.929,102.734 258.929 C 103.104 258.929,103.031 258.805,102.539 258.594 C 102.109 258.409,101.494 258.258,101.172 258.258 C 100.803 258.258,100.875 258.382,101.367 258.594 M301.758 259.648 C 307.160 261.403,311.183 268.853,309.350 273.705 C 306.713 280.684,293.495 279.547,289.791 272.022 C 285.247 262.792,291.509 256.317,301.758 259.648 M271.125 261.280 C 279.099 264.337,281.322 274.006,275.531 280.447 C 273.527 282.676,271.467 283.840,265.188 286.291 C 260.418 288.153,257.732 289.913,253.281 294.096 C 241.967 304.729,232.745 302.999,232.750 290.244 C 232.757 272.594,255.621 255.338,271.125 261.280 M352.825 315.234 C 352.825 315.986,352.905 316.294,353.004 315.918 C 353.102 315.542,353.102 314.927,353.004 314.551 C 352.905 314.175,352.825 314.482,352.825 315.234 M331.250 328.466 C 339.949 334.622,322.444 356.630,302.525 364.579 C 291.669 368.912,282.813 368.153,282.813 362.891 C 282.813 360.046,284.014 359.167,291.668 356.410 C 305.854 351.300,314.374 344.997,321.190 334.570 C 326.060 327.121,327.831 326.046,331.250 328.466 " stroke="none" fill="#4ccce3" fill-rule="evenodd"></path><path id="path2" d="M132.013 13.803 C 131.916 13.891,129.814 14.075,127.344 14.211 C 122.464 14.480,120.764 14.658,117.773 15.218 C 116.699 15.419,115.117 15.677,114.258 15.791 C 113.398 15.905,112.256 16.089,111.719 16.199 C 111.182 16.309,110.303 16.487,109.766 16.593 C 105.586 17.419,104.430 17.713,104.004 18.059 C 103.735 18.277,103.516 18.353,103.516 18.229 C 103.516 18.105,102.783 18.262,101.887 18.578 C 100.991 18.894,99.716 19.248,99.055 19.364 C 98.393 19.480,97.341 19.828,96.717 20.139 C 96.094 20.449,95.288 20.703,94.927 20.703 C 94.566 20.703,94.139 20.835,93.978 20.996 C 93.817 21.157,93.568 21.295,93.424 21.303 C 93.281 21.311,92.769 21.536,92.285 21.805 C 91.802 22.073,91.406 22.178,91.406 22.036 C 91.406 21.895,91.143 21.998,90.820 22.266 C 90.498 22.533,90.234 22.628,90.234 22.477 C 90.234 22.326,89.619 22.582,88.867 23.047 C 88.115 23.512,87.500 23.775,87.500 23.633 C 87.500 23.490,86.841 23.781,86.035 24.279 C 85.229 24.777,84.570 25.123,84.570 25.049 C 84.570 24.798,79.887 27.143,79.596 27.539 C 79.438 27.754,79.306 27.796,79.303 27.632 C 79.300 27.468,78.594 27.778,77.734 28.320 C 76.875 28.863,76.172 29.204,76.172 29.079 C 76.172 28.953,75.896 29.127,75.558 29.464 C 75.220 29.802,74.693 30.078,74.386 30.078 C 74.079 30.078,73.828 30.237,73.828 30.431 C 73.828 30.624,73.301 30.967,72.657 31.191 C 72.013 31.416,70.898 32.048,70.179 32.596 C 69.460 33.145,68.696 33.594,68.481 33.594 C 68.266 33.594,67.772 33.945,67.383 34.375 C 66.994 34.805,66.483 35.156,66.248 35.157 C 66.013 35.157,65.313 35.593,64.693 36.126 C 64.073 36.660,62.711 37.644,61.666 38.315 C 60.621 38.986,59.766 39.692,59.766 39.884 C 59.766 40.077,59.508 40.234,59.193 40.234 C 58.879 40.234,58.433 40.586,58.203 41.016 C 57.973 41.445,57.552 41.797,57.268 41.797 C 56.983 41.797,56.420 42.236,56.017 42.773 C 55.613 43.311,55.129 43.750,54.940 43.750 C 54.568 43.750,53.133 45.085,47.488 50.684 C 45.484 52.671,43.955 54.299,44.090 54.302 C 44.225 54.305,43.589 54.982,42.676 55.805 C 41.763 56.629,41.016 57.418,41.016 57.558 C 41.016 57.698,40.708 58.133,40.332 58.525 C 38.856 60.062,37.500 61.726,37.493 62.008 C 37.490 62.171,37.050 62.719,36.517 63.225 C 35.983 63.731,35.547 64.347,35.547 64.595 C 35.547 64.844,35.195 65.266,34.766 65.534 C 34.336 65.803,33.984 66.204,33.984 66.425 C 33.984 66.850,32.699 68.773,31.543 70.078 C 31.167 70.503,30.859 71.054,30.859 71.302 C 30.859 71.551,30.512 72.068,30.087 72.453 C 29.663 72.837,29.409 73.304,29.524 73.490 C 29.639 73.676,29.567 73.828,29.364 73.828 C 29.161 73.828,28.689 74.487,28.315 75.293 C 27.941 76.099,27.366 77.065,27.038 77.441 C 26.710 77.817,26.600 78.128,26.795 78.131 C 26.989 78.134,26.965 78.266,26.741 78.424 C 25.956 78.977,19.541 92.545,19.519 93.700 C 19.512 94.050,19.248 94.677,18.933 95.094 C 18.617 95.511,18.359 96.143,18.359 96.499 C 18.359 96.855,18.087 97.691,17.755 98.357 C 17.422 99.024,17.089 99.886,17.015 100.274 C 16.940 100.662,16.653 101.770,16.377 102.736 C 16.101 103.702,15.840 104.624,15.799 104.785 C 15.757 104.946,15.679 105.166,15.625 105.273 C 15.571 105.381,15.490 105.601,15.445 105.762 C 15.399 105.923,15.261 106.318,15.138 106.641 C 14.290 108.861,12.100 120.608,11.898 124.023 C 11.822 125.313,11.737 126.367,11.710 126.367 C 10.910 126.367,11.059 146.008,11.910 152.930 C 12.016 153.789,12.194 155.412,12.306 156.535 C 12.419 157.659,12.781 159.944,13.113 161.613 C 13.444 163.283,13.798 165.088,13.899 165.625 C 14.000 166.162,14.236 167.041,14.423 167.578 C 14.609 168.115,15.060 169.785,15.423 171.289 C 15.786 172.793,16.183 174.287,16.304 174.609 C 16.425 174.932,16.575 175.451,16.638 175.765 C 16.700 176.078,16.925 176.693,17.138 177.132 C 17.499 177.879,18.410 180.574,18.595 181.445 C 18.641 181.660,18.989 182.539,19.369 183.398 C 19.749 184.258,20.121 185.305,20.196 185.725 C 20.271 186.144,20.774 187.243,21.315 188.166 C 21.856 189.089,22.210 189.844,22.101 189.844 C 21.993 189.844,22.979 191.909,24.293 194.434 C 28.218 201.977,28.939 203.254,29.820 204.227 C 30.177 204.622,30.469 205.114,30.469 205.322 C 30.469 205.694,31.003 206.456,32.681 208.476 C 33.145 209.036,33.760 209.950,34.048 210.508 C 34.335 211.067,34.746 211.722,34.961 211.964 C 35.176 212.206,35.615 212.806,35.938 213.298 C 36.260 213.789,36.831 214.514,37.207 214.908 C 37.583 215.302,37.891 215.713,37.891 215.820 C 37.891 215.928,38.198 216.341,38.574 216.740 C 38.950 217.138,39.873 218.214,40.625 219.131 C 41.377 220.048,43.170 222.007,44.610 223.485 C 46.050 224.963,47.136 226.172,47.024 226.172 C 46.687 226.172,47.964 227.343,48.312 227.353 C 48.488 227.358,49.494 228.319,50.548 229.488 C 51.601 230.657,52.639 231.505,52.854 231.371 C 53.069 231.238,53.126 231.323,52.979 231.561 C 52.832 231.798,53.097 232.198,53.567 232.449 C 54.037 232.701,54.789 233.288,55.238 233.755 C 56.619 235.190,59.625 237.500,60.111 237.500 C 60.364 237.500,60.664 237.741,60.777 238.036 C 61.051 238.750,64.284 241.054,64.587 240.751 C 64.718 240.620,64.936 240.802,65.072 241.155 C 65.207 241.508,65.440 241.797,65.589 241.797 C 65.738 241.797,67.588 242.936,69.699 244.328 C 71.811 245.720,73.691 246.764,73.879 246.649 C 74.066 246.533,74.219 246.618,74.219 246.838 C 74.219 247.058,77.075 248.632,80.566 250.336 C 86.609 253.285,87.574 253.717,88.477 253.876 C 88.691 253.913,89.219 254.173,89.648 254.452 C 90.335 254.898,92.838 255.856,93.945 256.097 C 94.160 256.144,95.215 256.487,96.289 256.860 C 99.156 257.856,99.319 257.903,100.440 258.051 C 101.005 258.125,101.972 258.400,102.589 258.662 C 103.206 258.923,103.887 259.151,104.102 259.169 C 104.316 259.186,104.668 259.307,104.883 259.437 C 105.234 259.650,105.851 259.807,108.398 260.330 C 108.828 260.418,110.410 260.746,111.914 261.059 C 113.418 261.371,114.912 261.642,115.234 261.660 C 115.557 261.678,116.436 261.794,117.188 261.917 C 118.572 262.145,119.487 262.252,124.414 262.762 C 128.194 263.153,144.049 263.155,147.852 262.766 C 151.196 262.423,151.422 262.392,153.516 261.999 C 154.268 261.858,155.674 261.634,156.641 261.502 C 157.607 261.370,158.750 261.194,159.180 261.113 C 159.609 261.031,160.576 260.859,161.328 260.730 C 162.080 260.600,163.857 260.155,165.276 259.740 C 166.696 259.324,168.117 258.984,168.435 258.984 C 168.953 258.984,173.133 257.742,174.609 257.149 C 174.932 257.019,175.371 256.871,175.586 256.818 C 175.938 256.733,178.649 255.701,180.664 254.886 C 181.094 254.712,181.639 254.528,181.875 254.476 C 182.111 254.425,183.484 253.837,184.926 253.170 C 186.369 252.502,187.977 251.848,188.501 251.717 C 189.025 251.585,189.453 251.321,189.453 251.130 C 189.453 250.938,189.585 250.817,189.746 250.861 C 190.238 250.996,193.620 249.346,195.495 248.056 C 196.469 247.386,197.266 246.930,197.266 247.043 C 197.266 247.386,203.297 243.641,203.633 243.090 C 203.804 242.809,204.131 242.578,204.358 242.578 C 204.585 242.578,205.436 242.051,206.250 241.406 C 207.064 240.762,207.924 240.234,208.162 240.234 C 208.399 240.234,208.594 240.088,208.594 239.909 C 208.594 239.730,209.561 238.917,210.742 238.103 C 211.924 237.289,212.891 236.481,212.891 236.307 C 212.891 236.133,213.224 235.884,213.632 235.755 C 214.039 235.626,215.050 234.920,215.878 234.186 C 216.706 233.452,218.254 232.096,219.318 231.172 C 222.348 228.541,230.469 220.152,230.469 219.653 C 230.469 219.388,230.828 218.964,232.801 216.895 C 233.467 216.196,233.909 215.625,233.785 215.625 C 233.660 215.625,233.962 215.194,234.455 214.667 C 235.805 213.226,236.138 212.788,237.314 210.907 C 237.909 209.957,238.633 209.039,238.924 208.867 C 239.215 208.696,239.453 208.353,239.453 208.107 C 239.453 207.611,241.374 204.657,241.991 204.205 C 242.207 204.047,242.239 203.916,242.063 203.912 C 241.887 203.909,242.087 203.423,242.506 202.832 C 244.601 199.878,249.896 189.370,251.740 184.506 C 252.542 182.393,253.445 180.109,253.748 179.430 C 254.052 178.751,254.337 177.741,254.384 177.184 C 254.430 176.627,254.605 176.172,254.773 176.172 C 254.941 176.172,255.049 176.040,255.012 175.879 C 254.888 175.324,255.558 172.647,255.870 172.455 C 256.193 172.254,256.854 169.200,256.700 168.611 C 256.652 168.427,256.801 168.050,257.031 167.773 C 257.261 167.496,257.406 167.119,257.354 166.936 C 257.302 166.752,257.543 165.371,257.889 163.867 C 258.763 160.079,259.385 156.445,259.597 153.906 C 259.695 152.725,259.940 150.097,260.142 148.067 C 260.677 142.701,260.296 126.428,259.560 123.152 C 259.452 122.672,259.266 121.266,259.147 120.027 C 259.028 118.787,258.775 117.334,258.585 116.797 C 258.395 116.260,258.149 115.205,258.039 114.453 C 257.516 110.880,256.908 108.281,255.938 105.469 C 255.826 105.146,255.769 104.732,255.811 104.549 C 255.853 104.365,255.699 103.988,255.469 103.711 C 255.239 103.434,255.094 103.057,255.147 102.873 C 255.201 102.689,255.023 102.140,254.752 101.652 C 254.482 101.164,254.360 100.605,254.480 100.410 C 254.601 100.214,254.544 99.958,254.354 99.840 C 254.029 99.639,253.430 97.419,253.623 97.128 C 253.671 97.055,253.470 96.704,253.175 96.349 C 252.880 95.994,252.754 95.703,252.896 95.703 C 253.037 95.703,252.933 95.308,252.664 94.824 C 252.396 94.341,252.164 93.857,252.148 93.750 C 252.133 93.643,251.901 93.159,251.633 92.676 C 251.364 92.192,251.266 91.797,251.414 91.797 C 251.562 91.797,251.375 91.456,250.999 91.040 C 250.622 90.624,250.430 90.097,250.571 89.868 C 250.712 89.640,250.612 89.453,250.349 89.453 C 250.085 89.453,249.979 89.343,250.113 89.209 C 250.247 89.075,249.987 88.240,249.535 87.354 C 249.083 86.467,248.708 85.654,248.703 85.547 C 248.697 85.439,248.226 84.559,247.655 83.591 C 247.084 82.623,246.499 81.361,246.355 80.786 C 246.211 80.212,245.862 79.510,245.581 79.227 C 245.299 78.943,244.817 78.140,244.510 77.441 C 244.202 76.743,243.836 76.172,243.697 76.172 C 243.558 76.172,243.334 75.732,243.199 75.195 C 243.064 74.658,242.781 74.219,242.571 74.219 C 242.360 74.219,242.188 74.036,242.188 73.812 C 242.188 73.588,241.842 73.034,241.420 72.581 C 240.997 72.128,240.727 71.636,240.818 71.489 C 240.909 71.341,240.470 70.621,239.843 69.888 C 239.217 69.155,238.696 68.366,238.688 68.134 C 238.679 67.903,238.232 67.301,237.695 66.797 C 237.158 66.292,236.719 65.641,236.719 65.349 C 236.719 65.058,236.455 64.718,236.133 64.594 C 235.811 64.471,235.547 64.183,235.547 63.956 C 235.547 63.728,235.280 63.264,234.954 62.923 C 234.628 62.583,233.437 61.152,232.308 59.744 C 227.262 53.448,219.818 46.118,213.458 41.181 C 212.179 40.188,211.045 39.248,210.938 39.092 C 210.830 38.936,210.171 38.476,209.473 38.070 C 208.774 37.664,208.203 37.194,208.203 37.025 C 208.203 36.857,207.934 36.719,207.605 36.719 C 207.276 36.719,206.906 36.455,206.782 36.133 C 206.658 35.811,206.290 35.547,205.963 35.547 C 205.636 35.547,204.692 34.936,203.866 34.190 C 203.039 33.443,201.920 32.721,201.377 32.585 C 200.835 32.449,200.391 32.180,200.391 31.989 C 200.391 31.797,200.127 31.641,199.805 31.641 C 199.482 31.641,199.219 31.465,199.219 31.250 C 199.219 31.035,199.027 30.859,198.792 30.859 C 198.557 30.859,197.922 30.510,197.379 30.083 C 196.836 29.657,196.257 29.391,196.092 29.493 C 195.927 29.595,195.574 29.417,195.309 29.097 C 195.043 28.777,194.518 28.516,194.141 28.516 C 193.764 28.516,193.238 28.254,192.972 27.934 C 192.707 27.614,192.346 27.441,192.170 27.550 C 191.995 27.658,191.741 27.569,191.606 27.351 C 191.314 26.878,187.041 24.789,186.621 24.913 C 186.460 24.961,186.328 24.795,186.328 24.544 C 186.328 24.294,186.218 24.199,186.083 24.333 C 185.949 24.468,185.289 24.285,184.618 23.927 C 183.947 23.568,183.311 23.261,183.203 23.245 C 183.096 23.228,182.612 22.995,182.129 22.726 C 181.646 22.458,181.250 22.354,181.250 22.495 C 181.250 22.636,180.986 22.533,180.664 22.266 C 180.342 21.998,180.078 21.910,180.078 22.070 C 180.078 22.230,179.832 22.157,179.532 21.908 C 179.232 21.659,178.660 21.376,178.263 21.280 C 176.305 20.808,168.080 18.259,167.486 17.941 C 167.113 17.741,166.307 17.578,165.695 17.578 C 165.084 17.578,164.451 17.446,164.290 17.285 C 164.129 17.124,163.880 16.984,163.737 16.973 C 163.321 16.943,159.610 16.289,159.180 16.171 C 157.939 15.830,152.167 14.883,150.000 14.666 C 144.125 14.076,132.337 13.511,132.013 13.803 M150.977 27.894 C 155.977 28.502,156.855 28.637,159.180 29.154 C 159.824 29.297,160.703 29.464,161.133 29.525 C 161.563 29.585,163.264 29.998,164.915 30.441 C 166.565 30.884,168.235 31.309,168.626 31.385 C 169.016 31.461,169.600 31.628,169.922 31.755 C 170.244 31.883,172.441 32.622,174.805 33.397 C 177.168 34.172,180.029 35.237,181.163 35.762 C 182.297 36.288,183.346 36.719,183.495 36.719 C 183.871 36.719,192.728 41.153,192.969 41.461 C 193.076 41.599,193.921 42.126,194.846 42.633 C 197.654 44.172,200.853 46.110,201.172 46.466 C 201.684 47.039,204.287 48.828,204.607 48.828 C 204.806 48.828,205.594 49.399,206.358 50.098 C 207.121 50.796,208.942 52.334,210.403 53.516 C 216.322 58.304,220.661 62.679,225.898 69.141 C 228.709 72.608,232.422 77.618,232.422 77.942 C 232.422 78.088,232.964 78.892,233.627 79.729 C 234.289 80.566,234.707 81.250,234.555 81.250 C 234.404 81.250,234.514 81.532,234.800 81.878 C 235.513 82.737,235.430 82.590,239.320 89.844 C 241.444 93.805,244.580 101.482,246.101 106.445 C 246.562 107.949,247.167 109.795,247.446 110.547 C 247.725 111.299,248.077 112.705,248.228 113.672 C 248.380 114.639,248.743 116.396,249.036 117.578 C 249.705 120.273,249.943 121.561,250.227 124.023 C 250.352 125.098,250.524 126.416,250.611 126.953 C 252.047 135.828,251.506 151.644,249.402 162.305 C 247.976 169.528,245.050 179.458,243.153 183.507 C 242.622 184.641,242.187 185.695,242.186 185.851 C 242.184 186.452,236.312 197.673,234.609 200.330 C 233.621 201.872,232.813 203.307,232.813 203.520 C 232.813 203.732,232.637 203.906,232.422 203.906 C 232.207 203.906,232.031 204.155,232.031 204.460 C 232.031 204.764,231.885 205.072,231.706 205.143 C 231.526 205.215,230.345 206.680,229.079 208.398 C 222.705 217.056,214.874 224.915,205.531 232.031 C 203.979 233.213,202.232 234.575,201.648 235.058 C 201.064 235.541,200.446 235.937,200.274 235.937 C 200.103 235.937,198.960 236.580,197.735 237.364 C 189.268 242.788,170.613 250.781,166.421 250.781 C 166.055 250.781,165.634 250.902,165.487 251.050 C 165.339 251.197,164.914 251.366,164.543 251.425 C 164.171 251.484,162.197 251.882,160.156 252.310 C 158.115 252.737,155.566 253.207,154.492 253.353 C 153.418 253.499,152.100 253.680,151.563 253.756 C 145.546 254.600,133.075 254.694,126.172 253.948 C 120.578 253.343,120.788 253.376,114.648 252.134 C 113.145 251.830,111.299 251.483,110.547 251.364 C 109.377 251.179,106.070 250.191,103.320 249.204 C 102.891 249.050,100.693 248.264,98.438 247.457 C 93.213 245.588,87.619 243.080,83.887 240.932 C 82.866 240.345,82.031 239.978,82.031 240.117 C 82.031 240.257,81.636 240.021,81.152 239.593 C 80.038 238.608,78.125 237.413,78.125 237.702 C 78.125 237.823,77.905 237.731,77.637 237.499 C 77.368 237.266,76.270 236.512,75.195 235.823 C 72.524 234.108,67.486 230.323,66.840 229.544 C 66.549 229.193,66.162 228.906,65.981 228.906 C 65.800 228.906,65.136 228.423,64.506 227.832 C 63.875 227.241,62.507 226.017,61.465 225.111 C 50.798 215.839,39.662 200.576,34.025 187.500 C 33.516 186.318,32.869 184.824,32.588 184.180 C 31.798 182.369,29.812 176.936,29.304 175.195 C 29.052 174.336,28.746 173.369,28.622 173.047 C 28.355 172.349,28.233 171.939,27.984 170.898 C 27.881 170.469,27.515 169.063,27.172 167.773 C 26.828 166.484,26.471 164.990,26.380 164.453 C 24.804 155.248,24.673 154.262,24.268 148.633 C 23.947 144.160,24.010 134.963,24.388 131.250 C 24.759 127.599,25.083 124.839,25.233 124.039 C 25.395 123.177,25.807 120.520,25.962 119.336 C 27.214 109.760,33.795 92.902,40.933 80.982 C 41.664 79.760,45.968 73.560,46.484 72.983 C 46.807 72.624,47.686 71.500,48.438 70.486 C 49.917 68.491,56.243 61.232,57.610 59.961 C 58.072 59.531,59.748 58.037,61.335 56.641 C 62.922 55.244,64.536 53.794,64.923 53.418 C 65.309 53.042,65.786 52.734,65.983 52.734 C 66.180 52.734,66.400 52.603,66.471 52.441 C 66.623 52.100,68.632 50.455,69.932 49.609 C 70.427 49.287,71.145 48.725,71.528 48.361 C 71.911 47.996,72.744 47.429,73.380 47.100 C 74.015 46.772,74.785 46.253,75.090 45.948 C 76.071 44.967,86.127 39.319,88.854 38.218 C 89.506 37.955,90.127 37.642,90.234 37.522 C 91.014 36.654,105.112 31.696,109.766 30.654 C 111.377 30.293,113.263 29.828,113.956 29.620 C 114.649 29.412,115.704 29.173,116.300 29.088 C 116.895 29.003,117.799 28.846,118.307 28.739 C 118.815 28.631,120.221 28.429,121.432 28.289 C 122.642 28.150,123.974 27.971,124.391 27.893 C 124.808 27.815,126.654 27.638,128.493 27.501 C 130.331 27.364,131.867 27.227,131.904 27.197 C 132.298 26.881,147.091 27.422,150.977 27.894 M329.291 123.171 C 329.187 123.269,327.637 123.455,325.848 123.585 C 324.058 123.714,322.476 123.891,322.332 123.978 C 322.188 124.064,321.208 124.250,320.153 124.391 C 319.098 124.533,317.912 124.821,317.516 125.033 C 317.121 125.245,316.797 125.303,316.797 125.161 C 316.797 125.020,316.552 125.108,316.252 125.357 C 315.952 125.605,315.557 125.774,315.373 125.731 C 314.861 125.612,312.755 126.232,312.207 126.664 C 311.938 126.876,311.719 126.929,311.719 126.784 C 311.719 126.638,311.235 126.786,310.645 127.114 C 310.054 127.441,307.702 128.577,305.418 129.637 C 303.134 130.697,301.144 131.760,300.997 131.999 C 300.849 132.238,300.081 132.764,299.290 133.169 C 298.499 133.573,297.359 134.362,296.757 134.921 C 296.155 135.480,295.555 135.938,295.423 135.938 C 295.203 135.938,294.016 137.018,290.273 140.625 C 289.493 141.377,288.255 142.783,287.524 143.750 C 286.792 144.717,286.003 145.686,285.772 145.903 C 285.038 146.592,283.594 148.781,283.594 149.203 C 283.594 149.426,283.418 149.609,283.203 149.609 C 282.988 149.609,282.813 149.873,282.813 150.195 C 282.813 150.518,282.680 150.781,282.519 150.781 C 282.231 150.781,281.826 151.514,279.281 156.641 C 277.832 159.561,276.135 164.468,276.417 164.925 C 276.522 165.095,276.393 165.234,276.130 165.234 C 275.866 165.234,275.757 165.340,275.887 165.470 C 276.016 165.599,275.940 166.171,275.718 166.739 C 274.403 170.102,273.688 181.073,274.378 187.305 C 274.497 188.379,274.612 189.521,274.635 189.844 C 274.657 190.166,274.772 190.693,274.892 191.016 C 275.132 191.666,275.257 192.256,275.493 193.848 C 275.581 194.439,275.769 195.040,275.912 195.183 C 276.055 195.326,276.172 195.906,276.172 196.471 C 276.172 197.037,276.317 197.667,276.495 197.871 C 276.672 198.075,277.055 199.033,277.346 200.000 C 277.637 200.967,278.018 201.950,278.192 202.184 C 278.366 202.419,278.393 202.727,278.252 202.868 C 278.110 203.009,278.210 203.125,278.474 203.125 C 278.737 203.125,278.851 203.289,278.728 203.489 C 278.604 203.689,278.682 203.963,278.900 204.098 C 279.118 204.233,279.297 204.670,279.297 205.069 C 279.297 205.468,279.429 205.853,279.590 205.924 C 279.751 205.996,280.316 206.934,280.844 208.008 C 281.373 209.082,282.288 210.562,282.877 211.297 C 283.466 212.032,283.841 212.807,283.710 213.018 C 283.580 213.229,283.651 213.292,283.869 213.157 C 284.088 213.022,284.596 213.645,285.000 214.540 C 286.251 217.315,295.668 226.403,299.273 228.315 C 299.673 228.527,300.000 228.835,300.000 228.999 C 300.000 229.163,300.264 229.297,300.586 229.297 C 300.908 229.297,301.172 229.473,301.172 229.688 C 301.172 229.902,301.339 230.078,301.543 230.078 C 301.747 230.078,302.921 230.685,304.151 231.426 C 305.381 232.167,306.533 232.684,306.710 232.575 C 306.887 232.465,307.031 232.562,307.031 232.789 C 307.031 233.017,307.344 233.203,307.726 233.203 C 308.107 233.203,308.811 233.477,309.288 233.811 C 309.766 234.146,310.156 234.317,310.156 234.193 C 310.156 234.068,310.596 234.254,311.133 234.606 C 311.670 234.958,312.109 235.116,312.109 234.958 C 312.109 234.800,312.373 234.889,312.695 235.156 C 313.018 235.424,313.281 235.527,313.281 235.386 C 313.281 235.244,313.619 235.309,314.032 235.530 C 314.444 235.751,315.455 236.038,316.278 236.169 C 317.100 236.299,317.949 236.515,318.164 236.649 C 318.379 236.783,318.764 236.924,319.020 236.963 C 319.275 237.002,320.154 237.131,320.973 237.251 C 321.791 237.370,323.340 237.638,324.414 237.846 C 326.407 238.232,338.075 238.152,339.844 237.740 C 340.381 237.615,341.260 237.419,341.797 237.305 C 342.334 237.190,343.213 237.002,343.750 236.886 C 344.287 236.771,345.078 236.622,345.508 236.556 C 345.938 236.489,347.080 236.219,348.047 235.956 C 349.701 235.505,350.465 235.218,353.320 233.974 C 353.965 233.694,354.727 233.419,355.014 233.363 C 355.301 233.308,356.224 232.807,357.065 232.251 C 357.906 231.694,358.594 231.350,358.594 231.486 C 358.594 231.622,359.197 231.273,359.935 230.710 C 360.672 230.148,361.451 229.688,361.665 229.688 C 361.879 229.688,362.286 229.465,362.570 229.194 C 362.854 228.923,363.613 228.368,364.258 227.961 C 364.902 227.554,365.570 226.985,365.742 226.696 C 365.914 226.408,366.298 226.172,366.596 226.172 C 367.167 226.172,375.586 218.073,375.586 217.524 C 375.586 217.347,375.981 216.926,376.465 216.587 C 376.948 216.248,377.344 215.751,377.344 215.481 C 377.344 215.212,377.739 214.569,378.223 214.053 C 379.077 213.141,379.754 212.138,380.327 210.938 C 380.481 210.615,380.738 210.262,380.897 210.153 C 381.057 210.043,381.245 209.698,381.316 209.387 C 381.387 209.075,381.747 208.478,382.115 208.062 C 382.484 207.645,382.693 207.154,382.581 206.972 C 382.468 206.790,382.519 206.641,382.694 206.641 C 382.869 206.641,383.244 206.069,383.526 205.371 C 383.809 204.673,384.275 203.662,384.563 203.125 C 384.850 202.588,385.122 201.973,385.167 201.758 C 385.213 201.543,385.382 201.016,385.544 200.586 C 385.706 200.156,385.969 199.189,386.128 198.438 C 386.288 197.686,386.599 196.846,386.820 196.573 C 387.040 196.299,387.109 195.963,386.973 195.827 C 386.837 195.691,386.907 195.362,387.128 195.095 C 387.349 194.828,387.601 193.933,387.688 193.106 C 387.775 192.278,387.870 191.602,387.901 191.602 C 387.931 191.602,388.017 191.250,388.092 190.820 C 389.420 183.185,389.028 173.489,387.105 166.405 C 386.843 165.439,386.595 164.434,386.555 164.171 C 386.514 163.909,386.359 163.572,386.209 163.423 C 386.060 163.273,385.938 162.835,385.938 162.448 C 385.938 161.385,382.915 154.624,382.322 154.361 C 382.159 154.289,382.126 154.069,382.247 153.873 C 382.369 153.676,382.295 153.516,382.085 153.516 C 381.874 153.516,381.508 152.929,381.271 152.212 C 381.034 151.495,380.487 150.528,380.054 150.064 C 379.621 149.599,379.377 149.219,379.512 149.219 C 379.751 149.219,378.308 147.292,377.146 146.061 C 376.825 145.721,376.563 145.287,376.563 145.098 C 376.563 144.721,376.352 144.492,372.182 140.310 C 368.460 136.577,368.178 136.328,367.662 136.328 C 367.423 136.328,367.086 136.096,366.914 135.811 C 366.516 135.153,362.266 132.031,361.768 132.031 C 361.562 132.031,361.335 131.899,361.263 131.738 C 361.067 131.298,354.780 128.125,354.104 128.125 C 353.780 128.125,353.516 127.920,353.516 127.669 C 353.516 127.419,353.414 127.315,353.290 127.439 C 353.167 127.563,352.114 127.228,350.952 126.696 C 349.790 126.164,348.660 125.839,348.443 125.973 C 348.225 126.108,348.047 126.032,348.047 125.804 C 348.047 125.577,347.596 125.391,347.045 125.391 C 346.493 125.391,345.736 125.227,345.362 125.026 C 344.987 124.826,343.988 124.578,343.141 124.475 C 342.294 124.372,340.811 124.114,339.844 123.901 C 337.872 123.468,329.585 122.895,329.291 123.171 M339.255 132.255 C 341.187 132.602,343.046 133.036,343.387 133.218 C 343.727 133.400,344.431 133.620,344.952 133.707 C 345.965 133.875,346.318 134.006,349.560 135.416 C 350.715 135.917,351.902 136.328,352.197 136.328 C 352.493 136.328,352.734 136.533,352.734 136.784 C 352.734 137.035,352.851 137.123,352.993 136.981 C 353.135 136.839,353.827 137.161,354.529 137.697 C 355.232 138.233,355.919 138.672,356.056 138.672 C 356.465 138.672,361.455 142.278,362.384 143.245 C 362.857 143.738,363.332 144.141,363.440 144.141 C 364.103 144.141,372.266 153.764,372.266 154.545 C 372.266 154.683,372.789 155.648,373.430 156.688 C 380.028 167.411,381.512 183.866,377.056 196.875 C 375.660 200.951,371.500 208.791,369.595 210.935 C 364.391 216.795,358.408 222.000,355.078 223.563 C 354.756 223.714,353.350 224.450,351.953 225.198 C 350.557 225.946,349.192 226.559,348.920 226.560 C 348.649 226.561,348.122 226.733,347.749 226.942 C 346.872 227.433,341.946 228.921,340.430 229.154 C 339.785 229.253,339.001 229.422,338.687 229.530 C 337.132 230.065,331.542 230.314,326.563 230.070 C 319.523 229.726,308.325 225.861,303.331 222.052 C 302.640 221.525,301.940 221.094,301.776 221.094 C 300.918 221.094,291.976 212.087,289.949 209.180 C 286.830 204.708,282.938 195.936,282.235 191.795 C 282.107 191.044,281.928 190.166,281.837 189.844 C 280.239 184.222,280.975 173.348,283.489 165.430 C 284.678 161.685,289.024 152.959,290.201 151.953 C 290.327 151.846,291.301 150.703,292.367 149.414 C 295.099 146.109,299.991 141.406,300.697 141.406 C 300.877 141.406,301.365 141.092,301.782 140.708 C 306.003 136.813,317.610 132.386,325.195 131.777 C 326.699 131.656,327.964 131.527,328.007 131.489 C 328.337 131.197,336.439 131.749,339.255 132.255 M275.714 238.079 C 275.544 238.237,269.941 238.780,268.945 238.735 C 268.516 238.716,267.461 238.889,266.602 239.120 C 264.796 239.605,264.066 239.756,261.914 240.087 C 261.055 240.219,260.176 240.465,259.961 240.635 C 259.746 240.804,259.043 241.038,258.398 241.154 C 256.821 241.440,252.828 242.745,252.487 243.086 C 252.337 243.236,251.961 243.359,251.652 243.359 C 251.037 243.359,242.894 247.217,242.578 247.658 C 242.471 247.808,241.674 248.352,240.807 248.868 C 239.941 249.383,238.640 250.156,237.918 250.586 C 237.195 251.016,236.035 251.851,235.340 252.441 C 234.645 253.032,233.907 253.516,233.700 253.516 C 233.492 253.516,232.197 254.566,230.821 255.850 C 229.446 257.134,227.585 258.847,226.685 259.658 C 225.786 260.469,225.039 261.272,225.025 261.441 C 225.011 261.611,224.341 262.405,223.535 263.206 C 221.888 264.843,221.067 265.851,220.073 267.455 C 219.698 268.060,219.192 268.730,218.948 268.945 C 218.354 269.471,215.234 274.102,215.234 274.460 C 215.234 274.616,214.927 275.095,214.551 275.525 C 214.175 275.954,214.100 276.170,214.384 276.003 C 214.813 275.752,214.813 275.841,214.388 276.522 C 214.106 276.974,213.731 277.344,213.555 277.344 C 213.379 277.344,213.344 277.520,213.477 277.734 C 213.609 277.949,213.564 278.125,213.377 278.125 C 213.016 278.125,211.724 280.604,211.512 281.703 C 211.443 282.060,210.959 283.291,210.437 284.438 C 208.693 288.269,206.336 296.213,206.093 299.081 C 206.017 299.972,205.846 300.877,205.713 301.092 C 205.580 301.308,205.473 301.897,205.474 302.402 C 205.476 302.907,205.389 304.551,205.282 306.055 C 205.008 309.874,205.010 316.626,205.286 319.373 C 205.499 321.489,205.595 322.122,206.053 324.414 C 206.139 324.844,206.287 325.635,206.381 326.172 C 206.782 328.451,207.337 331.055,207.422 331.055 C 207.455 331.055,207.556 331.362,207.647 331.738 C 207.738 332.114,207.873 332.642,207.947 332.910 C 208.021 333.179,208.221 333.926,208.391 334.570 C 208.562 335.215,208.875 335.962,209.086 336.230 C 209.298 336.499,209.341 336.719,209.183 336.719 C 209.024 336.719,209.182 337.158,209.534 337.695 C 209.886 338.232,210.038 338.675,209.872 338.678 C 209.706 338.681,209.746 338.813,209.961 338.971 C 210.176 339.129,210.677 340.211,211.075 341.377 C 211.474 342.542,212.046 343.743,212.349 344.045 C 212.651 344.347,212.798 344.756,212.676 344.953 C 212.554 345.151,212.640 345.313,212.868 345.313 C 213.095 345.313,213.281 345.604,213.281 345.959 C 213.281 346.315,213.721 347.182,214.258 347.886 C 214.795 348.590,215.234 349.286,215.234 349.433 C 215.234 349.957,218.838 355.469,219.181 355.469 C 219.374 355.469,219.531 355.657,219.531 355.887 C 219.531 356.117,219.751 356.543,220.020 356.832 C 220.288 357.122,220.859 357.832,221.289 358.411 C 221.719 358.989,222.905 360.306,223.926 361.336 C 224.946 362.367,225.781 363.402,225.781 363.637 C 225.781 363.871,225.932 364.063,226.117 364.063 C 226.301 364.063,228.001 365.557,229.894 367.383 C 231.787 369.209,233.575 370.703,233.868 370.703 C 234.160 370.703,234.500 370.966,234.624 371.287 C 234.747 371.608,234.994 371.780,235.173 371.669 C 235.352 371.559,235.641 371.692,235.816 371.966 C 236.234 372.622,239.180 374.609,239.735 374.609 C 239.974 374.609,240.228 374.749,240.299 374.919 C 240.456 375.290,243.371 377.104,243.948 377.189 C 244.171 377.222,245.219 377.797,246.277 378.468 C 247.335 379.139,248.482 379.688,248.826 379.688 C 249.171 379.688,249.635 379.870,249.858 380.092 C 250.081 380.315,250.775 380.589,251.401 380.701 C 252.027 380.813,252.891 381.128,253.320 381.401 C 254.256 381.995,259.158 383.559,260.742 383.769 C 260.957 383.798,261.836 384.024,262.695 384.271 C 263.555 384.518,265.045 384.833,266.007 384.971 C 266.970 385.108,267.849 385.277,267.960 385.345 C 269.367 386.205,288.916 386.166,290.316 385.301 C 290.532 385.168,291.505 384.985,292.478 384.895 C 293.452 384.805,294.861 384.475,295.609 384.162 C 296.358 383.850,297.377 383.594,297.874 383.594 C 298.371 383.594,299.272 383.389,299.877 383.138 C 300.482 382.888,301.064 382.661,301.172 382.634 C 302.673 382.261,306.687 380.710,306.855 380.438 C 306.977 380.240,307.393 380.078,307.779 380.078 C 308.613 380.078,317.716 375.483,317.904 374.967 C 317.975 374.770,318.256 374.609,318.527 374.609 C 318.798 374.609,319.338 374.258,319.727 373.828 C 320.115 373.398,320.670 373.047,320.959 373.047 C 321.248 373.047,321.484 372.871,321.484 372.656 C 321.484 372.441,321.748 372.266,322.070 372.266 C 322.393 372.266,322.656 372.130,322.656 371.963 C 322.656 371.797,323.712 370.892,325.003 369.952 C 327.786 367.926,333.778 362.166,335.386 359.971 C 336.012 359.118,337.095 357.807,337.793 357.058 C 338.491 356.309,339.062 355.470,339.063 355.192 C 339.063 354.915,339.238 354.688,339.453 354.688 C 339.668 354.688,339.844 354.424,339.844 354.102 C 339.844 353.779,340.030 353.516,340.257 353.516 C 340.485 353.516,340.562 353.340,340.430 353.125 C 340.297 352.910,340.353 352.734,340.555 352.734 C 340.756 352.734,341.139 352.207,341.406 351.563 C 341.673 350.918,342.046 350.391,342.235 350.391 C 342.424 350.391,342.578 350.142,342.578 349.837 C 342.578 349.533,342.710 349.225,342.871 349.154 C 343.578 348.840,348.448 338.300,349.012 335.865 C 349.096 335.503,349.329 334.888,349.531 334.498 C 349.732 334.108,350.039 333.086,350.211 332.227 C 350.566 330.464,350.650 330.120,350.762 329.980 C 350.919 329.786,351.640 326.142,352.134 323.047 C 353.311 315.669,352.927 302.608,351.346 296.289 C 351.024 295.000,350.716 293.770,350.662 293.555 C 350.608 293.340,350.427 292.944,350.259 292.676 C 350.091 292.407,350.044 292.188,350.155 292.188 C 350.266 292.188,350.087 291.440,349.758 290.527 C 349.429 289.614,349.098 288.577,349.024 288.222 C 348.949 287.867,348.606 287.032,348.262 286.366 C 347.918 285.701,347.750 285.156,347.889 285.156 C 348.029 285.156,347.901 284.866,347.606 284.510 C 347.312 284.155,347.121 283.800,347.183 283.722 C 347.415 283.429,343.307 275.241,342.663 274.712 C 342.294 274.409,342.215 274.274,342.487 274.412 C 343.000 274.673,341.527 272.198,340.454 270.996 C 340.118 270.620,339.976 270.310,340.137 270.307 C 340.298 270.303,340.254 270.171,340.039 270.014 C 339.824 269.856,339.217 269.111,338.689 268.359 C 336.691 265.511,334.854 263.421,330.990 259.600 C 327.001 255.655,325.907 254.688,325.437 254.688 C 325.233 254.688,325.007 254.556,324.935 254.395 C 324.739 253.953,321.425 251.364,320.313 250.784 C 319.775 250.503,319.242 250.131,319.126 249.956 C 318.744 249.376,311.425 245.565,306.103 243.175 C 304.842 242.609,302.738 241.923,298.828 240.806 C 298.506 240.714,297.188 240.375,295.898 240.054 C 293.298 239.406,291.103 239.038,286.328 238.449 C 284.278 238.196,275.903 237.904,275.714 238.079 M288.867 247.705 C 293.526 248.310,294.264 248.424,294.984 248.652 C 295.345 248.767,295.962 248.930,296.356 249.014 C 298.592 249.493,303.257 251.043,305.375 252.010 C 306.719 252.625,308.032 253.171,308.291 253.224 C 308.550 253.277,309.295 253.616,309.947 253.977 C 310.599 254.339,312.012 255.106,313.086 255.682 C 319.504 259.124,328.707 267.201,332.813 272.995 C 333.779 274.360,335.108 276.206,335.765 277.097 C 336.423 277.989,337.213 279.288,337.521 279.984 C 337.829 280.680,338.214 281.250,338.377 281.250 C 338.539 281.250,338.672 281.443,338.672 281.678 C 338.672 281.914,339.320 283.452,340.111 285.096 C 340.903 286.741,341.600 288.262,341.661 288.477 C 341.723 288.691,342.289 290.378,342.920 292.224 C 346.936 303.977,347.200 320.528,343.536 330.912 C 343.241 331.749,342.988 332.516,342.973 332.619 C 342.900 333.144,341.780 336.369,341.210 337.695 C 339.954 340.622,339.631 341.278,338.952 342.285 C 338.554 342.876,338.340 343.359,338.478 343.359 C 338.615 343.359,338.451 343.636,338.114 343.973 C 337.776 344.311,337.500 344.838,337.500 345.145 C 337.500 345.452,337.336 345.703,337.136 345.703 C 336.935 345.703,336.653 346.076,336.508 346.532 C 336.243 347.368,334.208 350.506,333.295 351.489 C 333.023 351.782,332.320 352.665,331.732 353.452 C 331.145 354.239,330.106 355.498,329.425 356.250 C 328.743 357.002,327.864 357.976,327.472 358.414 C 326.550 359.444,318.634 365.987,317.621 366.557 C 317.195 366.796,315.825 367.595,314.576 368.331 C 308.518 371.903,300.606 375.251,296.517 375.971 C 295.783 376.100,295.067 376.278,294.924 376.366 C 294.782 376.454,293.713 376.631,292.548 376.759 C 291.383 376.888,289.752 377.172,288.924 377.390 C 287.476 377.771,276.023 377.941,274.414 377.605 C 273.736 377.464,269.294 376.884,268.750 376.866 C 268.643 376.862,268.189 376.720,267.741 376.550 C 267.293 376.380,266.269 376.136,265.464 376.008 C 264.659 375.880,263.675 375.601,263.276 375.388 C 262.877 375.175,262.130 375.000,261.614 375.000 C 261.099 375.000,260.545 374.868,260.384 374.707 C 260.223 374.546,259.930 374.392,259.733 374.365 C 259.536 374.338,259.287 374.272,259.180 374.219 C 259.072 374.165,258.853 374.093,258.691 374.058 C 258.530 374.024,258.047 373.800,257.617 373.560 C 257.188 373.320,256.703 373.109,256.540 373.091 C 255.630 372.990,246.329 368.144,245.396 367.285 C 245.105 367.017,244.630 366.797,244.341 366.797 C 244.052 366.797,243.757 366.665,243.685 366.504 C 243.488 366.062,239.453 362.781,239.453 363.063 C 239.453 363.198,238.952 362.819,238.340 362.220 C 237.728 361.622,236.366 360.323,235.313 359.333 C 232.788 356.960,230.383 354.105,227.646 350.234 C 226.415 348.494,225.273 346.894,225.107 346.677 C 224.351 345.694,220.703 338.608,220.703 338.122 C 220.703 337.916,220.381 337.032,219.986 336.158 C 216.211 327.792,214.457 312.273,216.209 302.734 C 216.347 301.982,216.537 300.928,216.631 300.391 C 217.232 296.971,217.610 295.499,218.741 292.188 C 219.438 290.146,220.257 287.993,220.561 287.402 C 220.865 286.812,221.038 286.328,220.945 286.328 C 220.720 286.328,225.359 277.665,226.269 276.387 C 228.068 273.859,233.586 267.257,234.998 265.943 C 235.994 265.016,237.379 263.724,238.078 263.072 C 238.776 262.420,240.338 261.205,241.548 260.371 C 242.759 259.537,243.750 258.708,243.750 258.529 C 243.750 258.350,243.923 258.203,244.134 258.203 C 244.345 258.203,245.707 257.471,247.161 256.577 C 249.325 255.246,255.731 252.037,256.437 251.931 C 256.538 251.915,257.724 251.463,259.072 250.925 C 260.420 250.388,261.787 249.885,262.109 249.808 C 265.885 248.906,268.303 248.334,268.945 248.192 C 269.932 247.974,275.802 247.319,278.125 247.168 C 280.639 247.005,285.239 247.235,288.867 247.705 " stroke="none" fill="#4cc4e4" fill-rule="evenodd"></path><path id="path3" d="M135.263 64.844 C 135.263 65.811,135.339 66.206,135.432 65.723 C 135.525 65.239,135.525 64.448,135.432 63.965 C 135.339 63.481,135.263 63.877,135.263 64.844 M67.368 67.676 L 65.430 69.727 67.480 67.788 C 69.386 65.987,69.710 65.625,69.419 65.625 C 69.357 65.625,68.434 66.548,67.368 67.676 M89.233 104.395 L 88.086 105.664 89.355 104.517 C 90.054 103.886,90.625 103.314,90.625 103.247 C 90.625 102.945,90.303 103.211,89.233 104.395 M85.718 107.910 L 84.570 109.180 85.840 108.032 C 86.538 107.401,87.109 106.830,87.109 106.763 C 87.109 106.461,86.787 106.727,85.718 107.910 M318.657 141.292 C 319.143 141.385,319.846 141.382,320.219 141.284 C 320.593 141.186,320.195 141.110,319.336 141.114 C 318.477 141.118,318.171 141.198,318.657 141.292 M300.760 151.074 L 299.414 152.539 300.879 151.193 C 302.242 149.940,302.523 149.609,302.225 149.609 C 302.160 149.609,301.501 150.269,300.760 151.074 M363.388 182.813 C 363.388 183.779,363.464 184.175,363.557 183.691 C 363.650 183.208,363.650 182.417,363.557 181.934 C 363.464 181.450,363.388 181.846,363.388 182.813 M211.108 205.957 L 209.961 207.227 211.230 206.079 C 211.929 205.448,212.500 204.877,212.500 204.810 C 212.500 204.508,212.178 204.774,211.108 205.957 M206.811 210.254 L 205.664 211.523 206.934 210.376 C 207.632 209.745,208.203 209.174,208.203 209.107 C 208.203 208.805,207.881 209.071,206.811 210.254 M296.191 258.863 C 296.567 258.961,297.183 258.961,297.559 258.863 C 297.935 258.765,297.627 258.684,296.875 258.684 C 296.123 258.684,295.815 258.765,296.191 258.863 M274.219 263.013 C 274.219 263.080,274.790 263.651,275.488 264.282 L 276.758 265.430 275.611 264.160 C 274.541 262.977,274.219 262.711,274.219 263.013 M242.188 270.117 C 241.239 271.084,240.550 271.875,240.658 271.875 C 240.765 271.875,241.629 271.084,242.578 270.117 C 243.527 269.150,244.215 268.359,244.108 268.359 C 244.001 268.359,243.136 269.150,242.188 270.117 M289.360 367.464 C 289.846 367.557,290.549 367.554,290.923 367.456 C 291.296 367.358,290.898 367.282,290.039 367.286 C 289.180 367.290,288.874 367.370,289.360 367.464 " stroke="none" fill="#93e3ec" fill-rule="evenodd"></path><path id="path4" d="M160.454 69.026 C 160.940 69.120,161.643 69.116,162.016 69.018 C 162.390 68.921,161.992 68.844,161.133 68.849 C 160.273 68.853,159.968 68.933,160.454 69.026 M44.665 118.555 C 44.667 120.273,44.735 120.928,44.818 120.009 C 44.900 119.090,44.899 117.684,44.815 116.884 C 44.731 116.084,44.664 116.836,44.665 118.555 M361.419 167.188 C 361.419 167.939,361.499 168.247,361.597 167.871 C 361.696 167.495,361.696 166.880,361.597 166.504 C 361.499 166.128,361.419 166.436,361.419 167.188 M373.566 180.273 C 373.567 181.777,373.638 182.345,373.723 181.534 C 373.807 180.724,373.806 179.493,373.719 178.800 C 373.633 178.106,373.564 178.770,373.566 180.273 M352.521 207.910 L 350.977 209.570 352.637 208.026 C 354.181 206.590,354.476 206.250,354.181 206.250 C 354.117 206.250,353.370 206.997,352.521 207.910 M150.884 235.437 C 151.478 235.526,152.357 235.524,152.837 235.431 C 153.318 235.339,152.832 235.265,151.758 235.268 C 150.684 235.271,150.291 235.347,150.884 235.437 M263.191 260.439 C 263.893 260.526,264.947 260.524,265.534 260.435 C 266.121 260.346,265.547 260.275,264.258 260.277 C 262.969 260.279,262.488 260.352,263.191 260.439 M253.893 293.262 L 251.758 295.508 254.004 293.373 C 256.091 291.389,256.429 291.016,256.139 291.016 C 256.078 291.016,255.067 292.026,253.893 293.262 M314.630 343.066 L 313.086 344.727 314.746 343.182 C 316.290 341.746,316.586 341.406,316.290 341.406 C 316.226 341.406,315.479 342.153,314.630 343.066 " stroke="none" fill="#b4ecf4" fill-rule="evenodd"></path></g></svg>